<?xml version="1.0" standalone="no"?>
<!DOCTYPE svg PUBLIC "-//W3C//DTD SVG 20010904//EN"
 "http://www.w3.org/TR/2001/REC-SVG-20010904/DTD/svg10.dtd">
<svg version="1.0" xmlns="http://www.w3.org/2000/svg"
 width="236.000000pt" height="419.000000pt" viewBox="0 0 236.000000 419.000000"
 preserveAspectRatio="xMidYMid meet">

<g transform="translate(0.000000,419.000000) scale(0.100000,-0.100000)"
fill="#000000" stroke="none">
<path d="M0 2621 c0 -1246 3 -1571 13 -1575 9 -5 9 -7 -1 -12 -17 -8 -18 -624
-1 -624 7 0 17 -8 24 -17 10 -14 10 -21 -2 -40 -8 -13 -19 -20 -24 -17 -5 3
-9 -68 -9 -165 l0 -171 1180 0 1180 0 0 446 0 447 -31 -34 -31 -34 23 43 c12
23 26 42 31 42 4 0 8 738 8 1640 l0 1640 -1180 0 -1180 0 0 -1569z m1379 1374
c12 -31 21 -63 21 -72 0 -9 7 -24 16 -34 15 -17 18 -16 56 12 23 16 48 29 58
29 9 0 22 6 29 13 10 8 15 9 18 1 2 -6 14 -9 26 -7 16 3 37 -10 74 -44 l51
-48 16 32 c9 19 31 40 56 53 45 23 46 23 24 -28 -9 -20 -19 -63 -24 -94 -5
-32 -16 -65 -24 -74 -9 -8 -16 -26 -16 -40 0 -13 -4 -24 -10 -24 -5 0 -10 25
-10 57 0 31 -3 53 -6 50 -4 -3 -16 0 -27 8 -15 10 -24 11 -33 4 -16 -14 -37
-2 -30 17 6 16 -25 18 -59 5 -11 -5 -33 -4 -49 0 -20 6 -32 5 -37 -2 -4 -8 -9
-8 -13 -1 -3 6 -16 10 -27 9 -20 -1 -20 -2 -4 -12 10 -5 27 -18 39 -27 21 -16
20 -17 -29 -38 -32 -14 -45 -24 -37 -29 9 -5 3 -18 -22 -45 -22 -23 -33 -43
-30 -54 3 -9 -2 -5 -11 11 -8 15 -17 27 -18 27 -2 0 -1 -30 1 -67 2 -49 0 -64
-7 -53 -6 8 -11 24 -11 35 0 11 -5 27 -11 35 -8 11 -9 6 -5 -22 5 -40 -10 -54
-17 -15 -2 12 -5 3 -6 -21 -1 -48 -12 -48 -41 0 l-18 31 3 -44 4 -44 -10 50
c-5 28 -12 65 -15 84 -7 42 -18 33 -16 -14 1 -19 -1 -35 -4 -35 -15 0 -54 35
-50 45 2 6 -2 12 -9 12 -10 0 -11 -5 -4 -18 5 -10 13 -29 19 -43 9 -25 8 -26
-18 -20 -25 6 -25 5 -9 -8 11 -8 16 -20 12 -30 -5 -12 -15 -6 -51 31 l-44 46
16 -50 c9 -27 24 -59 33 -70 16 -20 16 -20 -6 -1 -23 19 -23 19 -23 -2 0 -11
-4 -23 -9 -27 -6 -3 -6 7 0 27 11 41 11 47 -1 28 -5 -8 -14 -16 -20 -16 -5 -1
-14 -2 -20 -3 -5 0 -9 -11 -7 -23 1 -18 -2 -22 -18 -20 -25 5 -35 19 -35 52
-1 20 -3 18 -15 -14 -12 -35 -12 -133 0 -173 2 -6 -5 -21 -16 -34 -10 -12 -19
-19 -19 -15 0 4 -9 2 -20 -4 -17 -9 -22 -7 -30 15 -6 15 -10 45 -11 68 0 38
-1 40 -10 17 -6 -14 -8 -41 -5 -60 l5 -35 -14 30 c-20 42 -18 76 5 137 24 64
25 75 5 58 -28 -23 -26 -4 3 36 16 21 43 68 62 104 19 37 57 88 89 118 39 38
47 49 26 37 l-30 -17 23 20 c19 18 41 27 132 59 21 8 36 10 113 19 57 6 67 10
62 23 -4 9 -8 21 -9 26 -1 6 -9 21 -18 34 -10 13 -15 28 -12 33 3 4 0 8 -5 8
-6 0 -11 11 -11 25 0 14 5 25 10 25 6 0 10 -4 10 -9 0 -4 10 -21 22 -36 l21
-27 13 23 c7 13 13 36 14 52 0 43 17 32 39 -28z m181 -205 c0 -5 -7 -10 -16
-10 -8 0 -12 5 -9 10 3 6 10 10 16 10 5 0 9 -4 9 -10z m150 -105 c5 3 11 1 14
-4 19 -30 -66 -9 -93 23 -9 11 -2 10 29 -5 22 -11 45 -17 50 -14z m50 -35 c0
-5 -2 -10 -4 -10 -3 0 -8 5 -11 10 -3 6 -1 10 4 10 6 0 11 -4 11 -10z m74 -99
c18 -15 22 -36 4 -25 -7 4 -8 3 -4 -5 4 -6 12 -9 17 -6 14 9 29 -41 28 -98 l0
-52 -18 55 c-10 30 -33 89 -51 130 -38 91 -50 135 -16 65 13 -28 31 -57 40
-64z m-101 93 c3 -4 2 -15 -3 -25 -7 -12 -7 -20 0 -24 13 -8 13 -25 0 -25 -15
0 -43 48 -36 65 5 15 28 20 39 9z m-327 -59 c-3 -9 -10 -13 -16 -10 -6 4 -5
11 3 20 15 16 22 11 13 -10z m356 -11 c-2 -18 -11 -35 -19 -38 -12 -5 -13 -2
-7 11 4 10 8 27 8 39 1 11 6 21 11 21 6 0 9 -15 7 -33z m-596 -95 c19 -22 19
-22 -3 -8 -13 8 -23 17 -23 21 0 12 6 9 26 -13z m663 -59 c22 -41 41 -72 41
-67 0 6 43 -40 95 -103 l20 -25 -25 20 c-14 11 -37 31 -52 44 -33 30 -36 15
-9 -44 20 -43 105 -147 140 -171 20 -14 20 -14 15 18 -4 27 -1 24 16 -17 19
-43 90 -151 111 -165 4 -3 24 -36 44 -75 21 -38 46 -79 55 -90 9 -11 20 -27
25 -35 4 -8 -4 -1 -19 15 l-25 30 -1 -31 c0 -28 46 -107 72 -125 4 -3 -8 -11
-27 -18 -19 -7 -35 -16 -35 -21 0 -5 -12 -3 -26 5 -15 7 -32 11 -39 9 -15 -6
-44 -78 -50 -122 -2 -17 -8 -39 -14 -49 -8 -15 -9 -12 -6 15 5 41 -10 42 -19
1 -8 -40 19 -99 45 -99 11 0 19 5 19 12 0 6 2 9 4 7 10 -10 -16 -95 -35 -112
-10 -10 -19 -21 -19 -26 0 -5 -17 -16 -37 -25 -38 -16 -16 -16 35 -1 35 11 27
-14 -10 -30 -18 -7 -36 -11 -40 -9 -5 3 -8 -2 -8 -10 0 -9 -14 -20 -32 -26
-29 -9 -30 -9 -5 -6 26 3 27 2 11 -15 -9 -10 -21 -16 -25 -13 -5 3 -6 -2 -3
-10 5 -12 1 -14 -24 -7 -25 8 -34 5 -53 -15 -22 -23 -49 -32 -49 -16 0 4 5 13
10 18 12 12 3 44 -12 44 -5 0 -6 -5 -2 -11 4 -8 0 -9 -15 -4 -16 5 -20 3 -15
-8 3 -8 0 -18 -7 -23 -8 -4 -10 -3 -5 4 5 8 -3 12 -23 12 -20 0 -31 -5 -31
-14 0 -17 -38 -46 -60 -46 -13 0 -13 1 0 10 8 5 11 10 6 10 -5 0 -2 8 5 18 7
9 10 14 5 10 -5 -4 -16 -3 -25 1 -14 8 -16 1 -18 -53 -1 -44 1 -56 8 -43 10
16 69 53 69 42 0 -3 -15 -14 -32 -25 l-33 -20 63 0 c34 0 62 -4 62 -9 0 -12
-78 -48 -123 -56 -25 -5 -37 -12 -36 -24 0 -9 3 -11 5 -5 3 7 14 9 26 6 20 -5
20 -5 0 -16 -19 -11 -19 -11 1 -65 12 -30 37 -70 58 -90 40 -40 105 -67 113
-47 2 6 5 3 5 -6 1 -10 7 -18 15 -18 7 0 37 -10 65 -21 77 -32 80 -74 18 -218
l-34 -79 44 -32 c29 -20 51 -29 64 -25 14 5 17 2 13 -9 -3 -9 9 -28 32 -49
l38 -35 -29 -35 c-28 -33 -34 -36 -80 -34 -27 1 -53 6 -56 11 -4 5 -13 -4 -21
-20 -8 -16 -21 -28 -31 -28 -12 1 -4 -15 28 -56 25 -32 45 -64 45 -71 0 -17
-40 -59 -57 -59 -7 0 -13 4 -13 9 0 5 7 8 15 7 23 -2 53 50 38 65 -9 9 -11 7
-6 -10 3 -13 1 -21 -8 -21 -7 0 -9 3 -6 6 14 14 -38 84 -63 84 -13 0 -13 1 0
10 12 8 10 10 -10 11 -14 0 -19 3 -13 6 8 3 3 15 -17 36 -17 18 -30 38 -30 46
0 8 -3 11 -7 8 -4 -4 3 -24 14 -45 12 -20 22 -40 22 -45 0 -4 8 -31 16 -61 19
-65 16 -156 -5 -173 -10 -8 -11 -12 -3 -13 9 0 10 -7 3 -26 -6 -14 -10 -35
-10 -46 0 -21 0 -21 25 2 14 13 25 32 25 42 0 10 4 18 10 18 5 0 7 -7 4 -15
-4 -8 -3 -15 0 -15 4 0 10 11 15 23 8 20 15 23 40 19 23 -3 30 -1 28 9 -2 8
-2 11 0 7 3 -5 11 -8 19 -8 9 0 12 -4 9 -10 -11 -19 22 -10 59 15 20 13 36 23
36 21 0 -19 -18 -39 -46 -51 -37 -15 -45 -40 -15 -50 26 -8 51 -48 41 -65 -4
-7 -6 -19 -3 -27 10 -26 -16 -13 -34 17 -10 17 -23 28 -30 25 -48 -19 -49 -19
-35 -2 19 22 3 50 -18 34 -16 -12 -50 -62 -50 -72 0 -4 10 -3 21 0 l22 7 -21
-23 c-23 -24 -22 -40 1 -21 8 7 17 9 20 6 8 -9 -21 -37 -31 -30 -5 3 -30 -12
-55 -34 -41 -33 -45 -40 -33 -53 8 -7 20 -33 27 -56 12 -40 13 -41 24 -21 11
20 13 20 19 5 3 -9 3 -22 -1 -27 -4 -7 2 -9 15 -6 12 4 25 2 28 -3 4 -7 -79
-15 -109 -10 -4 1 -19 2 -33 3 -19 2 -24 7 -21 20 3 11 0 18 -9 18 -17 0 -19
17 -3 22 8 3 8 10 -2 26 -16 26 -31 29 -23 5 5 -16 4 -16 -6 0 -7 11 -10 30
-7 43 4 24 4 24 -15 8 -13 -12 -15 -20 -7 -25 19 -11 0 -31 -19 -20 -12 7 -22
5 -35 -7 -16 -15 -17 -15 -12 1 4 9 14 19 24 22 9 2 25 20 35 39 l18 33 -37
86 c-31 73 -99 184 -82 135 3 -9 -1 -22 -9 -29 -8 -7 -14 -24 -14 -38 3 -41 1
-51 -11 -51 -8 0 -8 5 1 15 10 12 10 15 -4 15 -19 0 -20 4 -4 30 15 24 4 37
-17 20 -11 -9 -14 -22 -10 -37 3 -13 1 -23 -5 -23 -5 0 -10 3 -10 8 -1 4 -3
34 -6 67 -5 54 -3 64 18 86 13 14 29 24 36 21 16 -5 15 2 -12 83 -21 63 -24
68 -32 45 -8 -24 -8 -24 -15 10 l-6 35 -3 -45 c-2 -40 -3 -42 -9 -15 -3 17 -4
46 -2 65 3 29 5 32 12 15 5 -13 8 10 9 60 0 53 5 86 15 99 17 23 20 63 4 68
-7 2 -7 19 -1 53 l9 50 7 -57 c5 -32 6 -73 3 -90 -5 -33 12 -89 59 -186 l20
-44 12 27 c8 17 8 24 1 20 -6 -4 -10 -1 -9 6 4 24 -12 59 -23 52 -6 -4 -7 -1
-2 7 4 7 2 16 -5 20 -6 4 -10 16 -8 26 4 16 6 15 18 -8 7 -15 17 -25 21 -22 5
3 9 -7 9 -23 0 -15 7 -36 14 -46 13 -16 14 -16 19 5 8 30 16 20 19 -25 1 -20
5 -37 9 -37 15 0 21 43 8 66 -9 18 -10 30 -1 49 16 34 16 73 1 58 -17 -17 -38
-5 -32 18 7 27 -21 25 -36 -3 -11 -22 -11 -22 -6 -1 3 12 1 24 -5 28 -19 12
-10 22 15 17 15 -2 25 0 25 7 0 6 -3 10 -7 9 -13 -5 -16 10 -9 42 3 17 11 30
17 30 7 0 9 -11 6 -30 -4 -16 -2 -32 3 -35 6 -4 8 -10 5 -15 -3 -5 -3 -21 1
-35 5 -20 9 -23 20 -14 8 6 14 19 14 28 0 9 6 23 13 30 10 10 9 12 -3 9 -12
-2 -15 8 -15 47 0 40 4 55 25 75 24 24 30 68 8 54 -7 -5 -8 -2 -3 6 4 7 2 16
-5 20 -8 5 -10 17 -6 34 8 32 23 34 29 4 4 -23 4 -23 6 -1 0 12 -6 28 -14 36
-8 8 -12 17 -10 19 3 3 -2 5 -10 5 -11 0 -12 -4 -5 -11 12 -12 13 -26 2 -26
-5 0 -17 15 -27 34 -11 19 -23 32 -28 29 -6 -3 -7 -2 -4 3 7 12 -27 238 -48
317 -18 68 -20 100 -6 77 6 -8 8 -17 6 -20 -2 -3 5 -11 16 -18 18 -12 19 -9
19 45 0 32 -3 69 -7 83 -6 23 -7 22 -19 -15 l-13 -40 5 50 c11 119 19 132 130
223 66 54 75 53 21 -1 -54 -54 -75 -93 -59 -109 9 -9 22 -7 54 10 l43 22 -35
-6 c-19 -3 -40 -9 -45 -13 -6 -3 -2 2 8 12 12 11 35 17 63 17 25 0 61 7 81 15
32 14 34 17 20 28 -15 10 -13 12 13 13 33 1 53 14 32 21 -7 3 -17 14 -23 26
-12 22 -12 22 13 0 13 -13 29 -23 34 -23 27 0 87 100 70 117 -6 7 -154 -50
-193 -74 -13 -7 -23 -10 -23 -6 1 5 26 24 57 43 108 68 141 91 155 108 12 15
11 16 -8 2 -12 -8 -37 -26 -55 -40 -32 -23 -31 -21 10 25 60 68 102 165 72
165 -11 0 -86 -97 -102 -132 -15 -35 -24 -35 -26 -1 -1 18 2 22 7 12 7 -11 10
-9 16 6 4 11 20 49 36 84 31 70 32 66 -32 101 -19 10 -55 33 -80 49 -25 17
-52 31 -60 31 -8 0 -22 13 -30 29 -68 127 -84 170 -89 226 l-6 60 -5 -75 c-4
-59 0 -94 18 -165 13 -49 24 -105 24 -123 0 -18 7 -40 16 -48 13 -13 13 -17 1
-25 -8 -5 -22 -9 -31 -9 -10 0 -17 -6 -15 -12 1 -7 -4 -13 -10 -12 -7 1 -22 2
-33 3 -12 0 -17 6 -14 15 3 8 1 17 -5 21 -11 6 -15 -6 -11 -40 3 -29 -17 -6
-22 25 l-4 25 -16 -31 c-12 -21 -14 -34 -7 -41 8 -8 7 -13 0 -18 -12 -7 -17 2
-26 57 -3 24 -2 37 6 40 8 3 10 14 5 32 -7 27 -8 28 -22 10 -9 -11 -12 -13 -8
-5 5 9 3 12 -4 7 -16 -10 -15 -33 1 -39 6 -2 9 -8 5 -12 -5 -5 -17 0 -28 10
-23 21 -27 14 -5 -9 14 -14 14 -20 -4 -63 -12 -26 -27 -82 -35 -123 -8 -42
-21 -91 -30 -110 -12 -25 -15 -28 -11 -10 3 14 8 45 11 70 l6 45 -32 -63 c-17
-34 -40 -67 -51 -73 -14 -7 -18 -17 -15 -32 3 -12 3 -16 0 -9 -11 23 -23 12
-21 -18 1 -16 6 -30 11 -30 16 0 -4 -14 -25 -17 -11 -2 -18 1 -14 7 4 6 -1 7
-12 3 -14 -5 -13 -1 6 20 26 28 14 38 -13 11 -9 -8 -20 -12 -26 -9 -11 7 -14
-18 -3 -29 12 -12 11 -35 -2 -46 -8 -6 -12 -17 -9 -23 6 -16 -48 -39 -70 -31
-10 4 -15 12 -12 20 6 16 -19 38 -34 29 -8 -5 -6 -11 5 -19 14 -10 14 -15 1
-48 -9 -20 -17 -64 -18 -97 -3 -57 -17 -87 -19 -38 0 14 -2 17 -6 7 -3 -8 -12
-22 -20 -31 -25 -30 -17 -119 9 -103 8 5 9 1 5 -10 -4 -10 -7 -22 -7 -27 0 -5
-5 -8 -12 -7 -21 5 -20 -31 1 -54 25 -26 26 -32 6 -48 -13 -11 -14 -10 -9 3 5
13 -5 39 -33 86 -4 6 -43 -31 -65 -63 -17 -23 -18 -30 -7 -37 9 -6 -3 -9 -36
-10 -48 -1 -49 -1 -17 -10 17 -5 32 -15 32 -22 0 -9 3 -8 9 1 7 11 9 10 14 -3
5 -11 3 -14 -5 -9 -8 5 -9 2 -5 -9 5 -13 1 -17 -16 -17 -24 0 -64 -24 -84 -50
-9 -12 -8 -16 5 -22 16 -6 16 -7 0 -7 -24 -1 -70 -53 -65 -73 4 -14 -14 -27
-35 -24 -10 1 -48 -50 -48 -66 0 -7 -18 -24 -40 -37 -22 -14 -38 -27 -35 -29
2 -3 11 0 18 6 7 6 31 10 52 8 23 -3 48 2 61 11 21 14 23 13 26 -13 2 -21 14
-33 47 -51 50 -26 65 -28 78 -10 14 17 -8 53 -29 49 -10 -2 -18 2 -18 10 0 10
-3 9 -11 -2 -8 -12 -10 -10 -6 10 2 14 8 33 12 43 6 13 4 16 -9 11 -9 -4 -16
-1 -16 6 0 7 8 10 19 7 26 -6 57 16 65 47 3 14 15 30 26 36 16 9 18 8 13 -6
-4 -11 -1 -15 13 -12 13 2 18 -2 15 -12 -2 -8 -6 -26 -8 -40 -4 -20 -2 -22 6
-10 9 12 11 11 11 -9 0 -26 11 -22 18 7 4 20 10 58 12 87 l1 20 9 -20 c5 -11
9 -42 9 -68 1 -38 6 -53 26 -71 l25 -23 -29 -13 c-27 -11 -29 -15 -24 -47 4
-25 3 -34 -5 -29 -6 3 -18 -1 -26 -10 -21 -20 -20 -10 0 22 14 20 14 29 5 47
-6 12 -9 14 -7 4 3 -10 -3 -26 -14 -37 -14 -14 -19 -29 -16 -54 4 -25 0 -39
-15 -52 -10 -9 -20 -15 -22 -13 -1 2 -7 13 -13 24 -6 11 -19 22 -29 23 -11 3
-15 0 -10 -8 8 -13 -53 -73 -66 -65 -4 3 -10 -5 -12 -17 l-4 -23 -8 23 c-7 22
-25 31 -25 12 0 -6 8 -27 19 -48 22 -44 38 -95 22 -73 -8 12 -12 10 -22 -12
-13 -29 -29 -36 -29 -12 0 18 -5 18 -31 5 -12 -7 -19 -21 -19 -39 0 -17 -5
-28 -14 -28 -7 0 -13 5 -13 11 0 6 -1 20 -1 30 -2 20 -2 20 -18 0 -15 -19 -15
-19 -10 1 19 80 18 85 -9 111 -15 13 -38 24 -54 24 -26 0 -29 -4 -35 -46 -3
-26 -2 -52 3 -58 6 -7 6 -26 0 -51 -14 -52 -14 -52 -5 -178 8 -104 7 -107 -12
-105 -12 2 -21 0 -21 -4 -3 -30 0 -38 11 -32 8 5 9 2 5 -10 -4 -10 -7 -24 -7
-32 0 -9 -5 -12 -11 -8 -12 7 -9 -30 6 -86 5 -20 3 -19 -8 5 -8 17 -21 39 -29
49 -14 18 -15 17 -10 -12 6 -41 -4 -41 -22 1 -8 18 -15 25 -15 15 -1 -22 -17
-32 -27 -17 -4 7 -3 9 2 6 13 -8 38 49 30 69 -11 29 -35 -11 -42 -71 l-7 -57
-18 23 c-10 13 -19 19 -19 12 0 -6 5 -15 10 -18 6 -3 15 -26 21 -51 6 -24 15
-44 20 -44 5 0 9 4 9 8 0 4 15 7 33 7 32 -1 32 -1 30 38 -2 43 -2 43 17 8 6
-13 8 -21 2 -18 -5 4 -7 -13 -4 -42 3 -39 1 -49 -13 -55 -10 -3 -25 -1 -33 6
-12 10 -11 6 3 -15 23 -35 14 -46 -15 -17 -15 15 -20 30 -17 47 3 17 1 23 -9
19 -7 -3 -16 4 -20 17 -4 12 -15 33 -25 46 l-19 24 -6 -31 c-6 -30 -38 -50
-50 -31 -3 5 -9 9 -14 9 -12 0 0 -37 16 -51 18 -15 18 -29 -1 -29 -8 0 -15 7
-15 15 0 8 -5 15 -11 15 -5 0 -8 4 -4 9 3 5 1 12 -3 15 -5 3 -7 17 -4 31 2 14
0 25 -6 25 -6 0 -9 11 -8 25 2 13 -1 22 -5 19 -12 -7 -11 2 3 29 6 12 14 28
18 36 3 8 12 17 20 19 7 3 10 0 7 -5 -4 -6 0 -19 8 -29 14 -18 14 -18 15 6 l1
25 13 -24 c12 -22 14 -23 23 -6 7 12 13 14 17 6 10 -16 23 -14 30 5 4 9 0 27
-9 40 -8 13 -15 31 -15 41 1 17 2 17 15 -1 8 -11 21 -16 30 -13 18 8 20 27 3
27 -10 0 -10 2 0 8 7 5 16 35 21 68 7 48 10 55 16 35 8 -23 9 -23 22 -6 12 17
13 14 13 -23 0 -49 20 -57 45 -18 13 19 14 29 5 45 -6 12 -10 27 -9 34 4 34
-2 41 -17 19 -8 -12 -20 -20 -25 -17 -5 4 -9 0 -9 -7 0 -9 -4 -8 -15 3 -16 16
-10 54 6 43 5 -3 9 2 9 10 0 9 5 17 10 17 6 1 16 2 23 3 6 0 13 17 15 36 2 19
8 40 13 46 11 14 1 46 -12 38 -9 -5 -13 8 -9 39 1 14 -3 17 -18 13 -16 -6 -20
0 -26 33 -3 22 -9 46 -12 55 -4 11 0 16 12 16 14 0 15 3 6 12 -8 8 -15 8 -28
-3 -15 -12 -17 -12 -9 0 6 11 3 13 -15 8 -13 -3 -28 0 -37 9 -8 8 -30 14 -49
14 -22 0 -37 6 -41 16 -3 8 -16 19 -28 24 -18 7 -21 14 -17 42 l6 33 9 -27
c13 -34 43 -47 98 -41 29 3 58 -1 83 -11 21 -9 42 -16 46 -16 10 0 53 91 46
98 -3 3 -6 0 -6 -7 0 -7 -6 -11 -14 -8 -18 7 -36 -12 -29 -30 5 -13 1 -12 -21
2 -23 16 -26 16 -20 1 3 -9 3 -16 0 -16 -21 0 -126 85 -126 103 0 4 5 5 12 1
7 -4 8 -3 4 5 -4 6 -12 9 -17 5 -5 -3 -23 2 -40 10 -30 15 -31 15 -26 -5 4
-15 2 -19 -8 -15 -8 3 -16 0 -19 -7 -2 -7 -5 2 -5 18 -1 25 3 31 21 32 12 1
29 -3 37 -10 23 -19 -2 24 -28 47 -21 19 -21 19 -21 -3 0 -13 -4 -19 -10 -16
-6 4 -9 18 -8 32 4 32 -14 40 -38 16 -17 -17 -17 -17 -12 5 4 14 2 22 -7 22
-19 0 -38 27 -40 60 -4 41 11 47 23 11 6 -16 20 -35 32 -41 27 -15 60 -4 60
20 0 10 13 27 30 36 32 19 44 40 34 56 -4 7 -10 4 -16 -6 -5 -9 -17 -16 -28
-16 -22 0 -63 48 -56 67 8 20 -14 62 -36 68 -19 7 -24 30 -8 40 5 3 7 0 4 -9
-4 -10 0 -14 15 -13 12 1 21 5 21 10 0 8 49 1 59 -8 2 -2 -6 -16 -18 -31 -26
-33 -27 -66 -2 -88 16 -15 22 -15 41 -4 18 11 22 11 31 -5 10 -17 13 -17 34
-3 36 23 42 19 15 -9 -13 -14 -21 -27 -18 -30 8 -8 49 46 43 55 -3 5 5 16 17
24 33 23 13 32 -28 12 -46 -22 -57 -13 -12 10 43 22 42 20 21 41 -10 10 -28
17 -41 15 l-24 -4 21 21 c18 18 35 21 110 23 98 3 119 13 142 71 7 18 20 37
28 43 8 6 11 16 7 22 -4 7 -2 12 3 12 6 0 11 -7 11 -15 0 -8 10 -19 21 -26 15
-8 9 6 -22 45 -29 37 -46 51 -51 43 -6 -9 -8 -8 -8 4 0 8 -6 23 -13 34 -13 17
-16 16 -50 -21 -29 -31 -38 -37 -48 -26 -7 6 -27 12 -43 12 l-30 0 54 55 54
55 -18 37 c-14 30 -15 34 -2 24 8 -7 18 -21 21 -32 7 -22 28 -25 44 -5 9 10 9
16 1 21 -14 9 6 35 26 35 23 0 16 25 -16 55 -28 27 -31 28 -43 11 -8 -11 -21
-16 -33 -14 -16 4 -15 6 8 16 16 6 28 17 28 25 0 21 -61 98 -72 90 -6 -3 -8
-1 -4 5 14 24 -14 21 -37 -4 -14 -14 -27 -22 -30 -17 -3 5 5 22 19 37 25 26
25 28 9 53 -10 14 -32 41 -50 59 l-33 33 -41 -35 c-23 -20 -42 -33 -42 -30 -1
3 -2 11 -3 16 0 6 -4 9 -7 8 -12 -5 -49 34 -49 51 0 18 69 91 86 91 6 0 31
-30 56 -67 25 -38 76 -104 113 -148 37 -44 75 -91 86 -105 10 -14 19 -19 19
-12 0 17 45 15 60 -3 7 -8 9 -23 6 -32 -4 -10 -4 -14 0 -11 4 4 18 -2 32 -12
l25 -20 43 25 c56 33 64 32 64 -8 0 -34 -24 -71 -47 -73 -28 -2 -33 -5 -33
-16 0 -9 3 -9 11 -1 6 6 28 9 49 6 l38 -5 1 38 c1 113 11 225 21 244 6 12 9
24 7 26 -6 6 -41 -43 -50 -68 -8 -23 -20 -23 -41 1 -23 26 -17 33 56 75 l60
34 -41 7 c-32 5 -41 11 -41 26 0 23 18 32 69 33 20 1 39 6 43 11 4 6 8 1 8
-10 0 -19 0 -19 13 0 8 11 20 48 26 81 17 79 25 92 44 75 12 -9 13 -20 6 -43
-10 -35 -5 -52 6 -19 3 12 12 21 19 21 10 0 11 8 3 40 -10 37 -9 42 14 65 20
21 129 71 129 60 0 -2 -7 -11 -16 -19 -13 -14 -13 -16 -1 -16 9 0 17 3 19 8 2
4 24 24 49 44 50 40 135 78 175 78 14 0 22 4 19 10 -7 11 0 12 33 4 14 -4 22
-14 23 -28 0 -19 1 -19 11 4 6 14 10 29 9 34 -1 5 5 6 14 2 10 -4 7 6 -11 29
-14 19 -31 35 -36 35 -5 0 -7 -4 -3 -9 3 -6 -6 -8 -20 -5 -19 3 -28 -1 -36
-20 -8 -16 -22 -26 -45 -29 -44 -7 -105 -37 -98 -48 3 -5 -1 -6 -9 -4 -16 7
-49 -27 -45 -45 2 -7 -3 -15 -10 -17 -10 -4 -13 3 -11 23 3 47 -1 98 -10 112
-6 11 -16 10 -50 -4 -23 -9 -71 -17 -106 -18 -58 -1 -65 -3 -66 -21 0 -11 -3
-14 -6 -7 -2 6 -8 10 -12 7 -10 -6 -38 59 -45 106 -4 23 1 60 15 105 12 38 23
80 25 93 5 40 27 45 41 8 l11 -32 1 31 c1 18 -8 43 -20 58 -12 15 -19 30 -15
33 3 3 8 -2 12 -11 3 -9 10 -13 16 -10 5 3 15 -1 21 -9 12 -15 72 -29 114 -28
13 0 22 -3 22 -7 -4 -22 3 -32 21 -32 11 0 20 -5 20 -11 0 -7 9 -5 24 5 25 16
25 15 29 -22 l4 -37 1 43 c2 50 16 55 31 11 13 -39 14 -83 2 -126 -7 -26 -7
-31 5 -26 9 3 14 -2 14 -16 0 -12 4 -21 10 -21 5 0 7 -7 4 -15 -5 -11 -2 -13
10 -9 9 3 14 9 11 13 -11 19 -13 62 -2 58 7 -2 12 -24 12 -55 0 -59 5 -67 41
-58 25 7 26 8 9 26 -11 12 -13 20 -6 20 6 0 -5 26 -25 58 l-36 57 31 -33 c19
-20 38 -32 46 -28 9 3 15 0 15 -8 0 -7 10 -21 22 -32 21 -19 21 -19 13 1 -4
11 -9 29 -10 40 -1 11 -7 31 -14 43 -15 29 -3 45 13 17 6 -11 26 -35 44 -53
25 -24 31 -36 24 -45 -8 -9 -5 -20 8 -37 l20 -25 0 27 c0 15 5 30 10 33 6 3
10 15 10 26 0 27 69 177 85 183 10 3 10 -4 0 -37 -30 -100 -28 -188 3 -124 10
22 11 22 11 -5 1 -34 19 -37 25 -5 11 53 13 107 5 113 -9 5 -4 162 5 172 2 2
7 -27 11 -65 9 -79 20 -108 31 -80 5 15 10 11 25 -22 18 -42 64 -90 85 -91 13
0 19 19 30 95 l7 50 29 -88 c15 -49 36 -128 46 -178 10 -49 21 -87 24 -84 3 3
8 -3 11 -15 3 -11 1 -20 -4 -20 -5 0 -9 -8 -9 -17 0 -10 -5 -25 -11 -33 -8
-12 -10 -9 -6 13 4 24 -1 31 -34 47 -49 26 -56 25 -33 -2 10 -13 2 -8 -18 11
-21 19 -35 37 -33 41 2 4 -11 22 -30 40 -35 34 -43 35 -26 2 5 -9 17 -39 26
-65 19 -55 91 -119 182 -162 66 -32 91 -32 99 -1 10 42 1 59 -41 72 -24 7 -32
13 -20 14 19 1 19 2 -1 10 -23 9 -37 53 -50 148 -3 28 -12 52 -18 52 -6 0 -5
4 3 9 9 6 11 18 6 40 -4 17 -11 29 -16 26 -5 -4 -6 1 -3 10 4 9 -5 33 -20 55
-14 22 -31 61 -37 87 -15 61 -56 153 -72 159 -7 2 -14 15 -14 27 -1 12 -5 33
-8 47 -9 34 -3 26 44 -60z m-766 -7 c-3 -10 -3 -15 2 -11 9 9 35 -9 35 -23 0
-5 -4 -9 -10 -9 -5 0 -10 7 -10 16 0 8 -4 13 -9 9 -12 -7 -24 12 -16 25 10 16
15 12 8 -7z m77 -45 c0 -16 -18 -7 -34 17 -25 38 -19 53 9 20 13 -16 24 -33
25 -37z m666 -8 c3 0 3 10 -1 23 -5 19 -4 20 5 4 6 -9 8 -22 5 -27 -3 -5 4
-23 16 -39 21 -28 21 -30 4 -80 -13 -40 -14 -55 -5 -66 9 -11 8 -14 -9 -12
-21 1 -45 42 -35 59 4 6 3 8 -3 5 -12 -7 -42 58 -41 88 1 11 7 28 13 38 12 17
14 15 25 -20 7 -21 16 -42 20 -47 10 -11 -7 70 -20 95 -6 10 -10 21 -10 26 1
4 8 -4 16 -19 8 -16 17 -28 20 -28z m-1049 -12 c-3 -8 -6 -5 -6 6 -1 11 2 17
5 13 3 -3 4 -12 1 -19z m375 -15 c18 -16 18 -16 12 0 -10 27 12 19 24 -9 10
-20 10 -24 0 -18 -7 5 -25 7 -39 6 -20 -3 -28 2 -32 17 -6 25 10 27 35 4z
m342 -63 c4 -14 2 -31 -3 -39 -10 -15 -31 -7 -31 12 0 7 4 6 10 -3 8 -12 10
-9 10 13 0 17 -5 27 -15 27 -18 0 -20 17 -2 23 16 6 24 -3 31 -33z m-44 -80
c6 -11 8 -20 6 -20 -3 0 -10 9 -16 20 -6 11 -8 20 -6 20 3 0 10 -9 16 -20z
m80 -72 c22 -28 26 -48 10 -48 -5 0 -10 7 -10 15 0 8 -5 15 -10 15 -14 0 5
-36 22 -43 8 -4 7 -6 -4 -6 -15 -1 -51 47 -70 93 -7 16 -6 17 7 6 14 -11 14
-10 5 16 l-10 29 20 -25 c10 -14 28 -37 40 -52z m-930 -17 c0 -3 -11 -7 -25
-7 -26 -2 -35 21 -12 29 12 4 37 -10 37 -22z m1370 -48 c0 -19 -13 -9 -16 12
-1 8 2 13 7 9 5 -3 9 -12 9 -21z m-1070 -39 c0 -14 -4 -23 -9 -20 -5 3 -7 15
-4 26 7 28 13 25 13 -6z m-116 -249 c3 -8 1 -15 -3 -15 -5 0 -11 7 -15 15 -3
8 -1 15 3 15 5 0 11 -7 15 -15z m1031 -8 c0 -26 -20 -25 -23 2 -3 16 1 22 10
19 7 -3 13 -12 13 -21z m45 -27 c0 -12 -28 -25 -36 -17 -9 9 6 27 22 27 8 0
14 -5 14 -10z m-975 -100 c3 -5 -1 -10 -9 -10 -9 0 -16 5 -16 10 0 6 4 10 9
10 6 0 13 -4 16 -10z m685 -82 c0 -5 -4 -8 -10 -8 -5 0 -10 10 -10 23 0 18 2
19 10 7 5 -8 10 -18 10 -22z m80 -23 c0 -17 -2 -17 -10 -5 -5 8 -10 24 -10 35
0 17 2 17 10 5 5 -8 10 -24 10 -35z m10 -94 c-1 -31 -14 -12 -24 34 -6 28 -5
29 9 11 8 -11 15 -31 15 -45z m-1265 -10 c-3 -6 -11 -11 -17 -11 -6 0 -6 6 2
15 14 17 26 13 15 -4z m1782 -51 c-8 -19 -17 -28 -21 -22 -7 11 23 67 31 59 2
-2 -3 -19 -10 -37z m-1756 7 c-13 -13 -26 -3 -16 12 3 6 11 8 17 5 6 -4 6 -10
-1 -17z m1283 -67 c-6 -6 -10 -2 -11 12 -2 16 1 18 10 9 7 -7 8 -14 1 -21z
m-1209 -5 c0 -14 -6 -25 -12 -25 -7 0 -13 9 -13 19 0 11 6 22 13 24 6 3 12 6
12 6 0 1 0 -10 0 -24z m935 -10 c-7 -9 -15 -13 -17 -11 -7 7 7 26 19 26 6 0 6
-6 -2 -15z m220 -2 c0 -13 -20 -39 -20 -28 0 6 -5 3 -10 -7 -19 -31 22 -76 42
-46 6 10 8 8 8 -5 0 -33 -30 -31 -66 4 -40 39 -45 75 -11 82 38 7 57 7 57 0z
m-1342 -30 c-4 -34 -28 -43 -28 -10 0 25 7 37 22 37 5 0 8 -12 6 -27z m219
-13 c2 -12 -3 -20 -11 -20 -22 0 -29 19 -15 36 14 17 22 12 26 -16z m1173 -20
c0 -16 -4 -30 -8 -30 -5 0 -7 14 -4 30 2 17 6 30 8 30 2 0 4 -13 4 -30z m-132
-65 c0 -15 -3 -13 -13 10 -11 24 -14 26 -15 10 -1 -18 -2 -18 -10 -3 -7 11 -6
26 1 45 l11 28 13 -35 c8 -19 13 -44 13 -55z m682 82 c0 -2 -17 -19 -37 -38
l-38 -34 34 38 c33 34 41 42 41 34z m-910 -16 c0 -5 10 -8 23 -6 18 4 23 0 25
-21 1 -14 -2 -23 -8 -19 -6 3 -10 3 -10 -2 0 -4 -11 -13 -25 -20 -31 -14 -43
1 -20 24 16 15 16 18 1 28 -9 7 -13 15 -9 18 9 10 23 8 23 -2z m-739 -18 c13
-16 12 -17 -3 -4 -10 7 -18 15 -18 17 0 8 8 3 21 -13z m861 -25 c-7 -7 -12 -8
-12 -2 0 6 3 14 7 17 3 4 9 5 12 2 2 -3 -1 -11 -7 -17z m-872 -18 c-11 -9 -19
-19 -17 -21 1 -2 -4 3 -11 11 -10 12 -10 17 4 27 9 6 22 9 30 6 12 -4 10 -9
-6 -23z m1680 10 c-6 -11 -13 -20 -16 -20 -2 0 0 9 6 20 6 11 13 20 16 20 2 0
0 -9 -6 -20z m-2109 1 c7 11 9 10 9 -3 0 -9 -4 -20 -10 -23 -5 -3 -10 -4 -10
-1 0 2 -2 10 -3 18 -2 7 -2 9 1 4 2 -4 8 -2 13 5z m1455 -23 c9 -18 21 -36 26
-39 6 -4 11 -28 13 -55 3 -48 2 -48 -10 -19 -24 56 -55 134 -55 139 0 14 11 3
26 -26z m-1316 0 c0 -19 -2 -20 -10 -8 -13 19 -13 30 0 30 6 0 10 -10 10 -22z
m1146 8 c16 -12 17 -17 6 -28 -11 -11 -12 -10 -7 3 4 10 -2 19 -17 27 -13 6
-18 11 -12 11 5 1 19 -5 30 -13z m-237 -56 c0 -10 -3 -8 -9 5 -12 27 -12 43 0
25 5 -8 9 -22 9 -30z m126 16 c41 10 28 -14 -22 -40 -22 -12 -45 -32 -51 -46
-10 -25 -10 -25 -11 -2 -1 13 -5 20 -11 17 -17 -11 -11 -37 10 -42 11 -3 20
-9 20 -14 0 -15 -16 -10 -33 9 -24 27 -13 114 17 128 15 7 25 6 37 -3 11 -9
27 -11 44 -7z m175 2 c0 -17 -3 -19 -9 -9 -5 7 -14 10 -20 7 -12 -8 -15 6 -4
17 14 15 33 6 33 -15z m-80 -42 c10 -13 10 -17 3 -12 -8 4 -13 2 -13 -5 0 -9
-4 -9 -15 1 -11 9 -12 15 -2 25 7 7 12 12 12 11 1 0 7 -10 15 -20z m200 -39
c18 -56 5 -57 -14 -1 -18 54 -19 62 -7 49 5 -6 14 -27 21 -48z m-1277 -45 c-3
-12 -9 -19 -14 -17 -4 3 -5 13 -2 21 3 9 0 20 -7 24 -7 4 -9 13 -5 20 11 18
35 -23 28 -48z m1072 32 c14 -15 25 -38 24 -53 l0 -26 -11 23 c-8 15 -17 20
-29 17 -9 -3 -20 -1 -24 5 -5 8 -13 6 -25 -5 -15 -13 -23 -14 -39 -5 -12 6
-19 16 -15 21 4 7 10 7 17 0 6 -6 18 -11 26 -11 12 0 12 3 3 12 -7 7 -12 20
-12 30 0 29 56 24 85 -8z m-215 -10 c0 -8 -4 -14 -10 -14 -5 0 -10 9 -10 21 0
11 5 17 10 14 6 -3 10 -13 10 -21z m311 -109 l-9 -40 -1 52 c-1 28 2 60 7 70
12 29 15 -34 3 -82z m-276 51 c7 3 16 1 19 -4 7 -11 -30 -22 -58 -18 -11 1
-22 8 -24 15 -3 9 2 11 17 6 14 -4 21 -2 22 7 0 9 2 10 5 1 3 -7 11 -10 19 -7z
m414 -61 c0 -11 -7 0 -15 25 -17 56 -17 64 1 25 8 -16 14 -39 14 -50z m691 64
c0 -5 -4 -8 -9 -5 -4 3 -17 -4 -27 -16 -15 -17 -16 -20 -3 -16 9 4 16 1 16 -6
0 -7 -9 -13 -19 -13 -23 -2 -24 24 -1 49 18 20 43 24 43 7z m-1220 -28 c0 -11
3 -28 6 -38 5 -16 4 -16 -10 1 -18 22 -21 56 -6 56 6 0 10 -9 10 -19z m51 -3
c11 -21 11 -22 -4 -9 -10 7 -17 17 -17 22 0 15 9 10 21 -13z m189 -29 c0 -6
-4 -7 -10 -4 -5 3 -10 11 -10 16 0 6 5 7 10 4 6 -3 10 -11 10 -16z m835 -9 c3
-5 1 -10 -4 -10 -6 0 -11 5 -11 10 0 6 2 10 4 10 3 0 8 -4 11 -10z m-1005 -37
c0 -8 -4 -11 -10 -8 -5 3 -10 -1 -10 -10 0 -13 -4 -14 -20 -5 -23 12 -27 35
-5 27 8 -4 17 -2 20 3 4 6 1 10 -5 10 -6 0 -8 5 -5 10 9 14 35 -7 35 -27z
m377 -25 c-3 -8 -6 -5 -6 6 -1 11 2 17 5 13 3 -3 4 -12 1 -19z m-1189 -13 c-3
-3 -9 2 -12 12 -6 14 -5 15 5 6 7 -7 10 -15 7 -18z m860 13 c-2 -6 -10 -14
-16 -16 -7 -2 -10 2 -6 12 7 18 28 22 22 4z m652 8 c0 -2 -8 -10 -17 -17 -16
-13 -17 -12 -4 4 13 16 21 21 21 13z m-1585 -36 c3 -5 1 -10 -4 -10 -6 0 -11
5 -11 10 0 6 2 10 4 10 3 0 8 -4 11 -10z m834 -55 c0 -5 -6 -1 -14 9 -8 11
-15 27 -15 35 1 17 29 -26 29 -44z m658 43 c-23 -6 -42 -7 -48 -1 -5 5 11 9
39 10 l47 1 -38 -10z m-122 -173 c2 -34 1 -48 -3 -33 -4 15 -15 36 -24 47 -36
42 -49 101 -32 146 10 26 54 -92 59 -160z m-430 145 c-3 -5 -12 -10 -18 -10
-7 0 -6 4 3 10 19 12 23 12 15 0z m43 -5 c-3 -3 -32 -21 -64 -40 -46 -28 -53
-30 -29 -9 30 25 114 69 93 49z m33 -73 c6 -7 18 -11 26 -8 8 3 11 1 8 -4 -3
-6 -12 -10 -20 -10 -15 0 -55 47 -55 64 0 6 7 2 15 -9 8 -11 19 -26 26 -33z
m-156 28 c-3 -5 -12 -10 -20 -10 -7 0 -21 -7 -29 -16 -9 -8 -21 -12 -27 -8 -8
4 5 14 32 25 53 22 52 21 44 9z m908 -50 c-3 -12 -8 -19 -11 -16 -5 6 5 36 12
36 2 0 2 -9 -1 -20z m-56 -42 c-3 -8 -6 -5 -6 6 -1 11 2 17 5 13 3 -3 4 -12 1
-19z m-1881 -19 c19 -22 19 -22 -3 -10 -13 6 -23 16 -23 21 0 15 5 12 26 -11z
m1209 -48 c13 -16 15 -21 5 -16 -29 16 -40 27 -34 37 3 5 7 8 8 6 0 -2 10 -14
21 -27z m-1251 -26 c-4 -8 -11 -15 -16 -15 -6 0 -5 6 2 15 7 8 14 15 16 15 2
0 1 -7 -2 -15z m56 -55 c0 -11 -4 -20 -10 -20 -5 0 -10 9 -10 20 0 11 5 20 10
20 6 0 10 -9 10 -20z m1301 -55 c0 -16 4 -39 9 -50 8 -22 7 -24 33 45 3 9 6 5
6 -10 1 -30 -32 -76 -47 -66 -6 4 -9 13 -5 21 8 22 -16 48 -32 35 -10 -8 -15
-3 -24 20 -5 17 -6 28 -1 25 5 -3 11 -2 14 3 2 4 14 8 25 8 17 0 21 -7 22 -31z
m334 -25 c3 -5 2 -10 -4 -10 -5 0 -13 5 -16 10 -3 6 -2 10 4 10 5 0 13 -4 16
-10z m-1565 -58 c0 -7 -4 -10 -10 -7 -5 3 -10 16 -10 28 0 18 2 19 10 7 5 -8
10 -21 10 -28z m1050 2 c0 -17 -33 -35 -48 -25 -9 5 -8 12 3 29 16 22 45 20
45 -4z m953 -40 c-7 -3 -9 -12 -6 -20 7 -18 -4 -18 -23 0 -15 15 -5 24 26 24
9 0 10 -1 3 -4z m-987 -115 c-3 -34 -6 -70 -6 -80 0 -11 -4 -19 -10 -19 -5 0
-10 6 -10 14 0 8 -5 16 -12 18 -13 5 -14 68 0 77 5 3 12 16 16 29 4 12 12 22
18 22 7 0 9 -20 4 -61z m273 -78 c0 -29 -2 -32 -9 -16 -5 11 -11 32 -14 48 -4
15 -13 27 -22 27 -9 0 -12 5 -8 12 4 7 3 8 -5 4 -6 -4 -9 -11 -6 -16 3 -4 1
-19 -4 -32 -9 -20 -10 -18 -10 16 -1 24 6 47 16 58 16 17 17 16 40 -23 13 -24
23 -57 22 -78z m124 79 c3 -11 1 -20 -4 -20 -5 0 -9 4 -9 9 0 5 -3 17 -7 27
-4 11 -3 15 4 11 6 -4 13 -16 16 -27z m-1333 10 c0 -5 -7 -10 -16 -10 -8 0
-12 5 -9 10 3 6 10 10 16 10 5 0 9 -4 9 -10z m2002 -64 c4 -6 1 -21 -7 -33
-13 -19 -13 -22 3 -26 9 -3 4 -5 -12 -6 -28 -1 -28 0 -13 17 20 22 22 54 5 51
-25 -3 -39 1 -34 10 7 11 48 2 58 -13z m-77 -68 c-16 -12 -30 -9 -17 4 7 7 13
28 13 48 l2 35 6 -40 c3 -23 2 -43 -4 -47z m-826 11 c28 -45 42 -83 24 -66 -3
4 -18 -3 -31 -15 l-25 -23 14 23 c8 12 18 22 22 22 12 0 -2 40 -24 72 -18 25
-23 38 -15 38 1 0 17 -23 35 -51z m757 22 c-1 -22 -4 -27 -13 -19 -9 7 -13 7
-13 -2 0 -8 -3 -10 -6 -7 -6 6 21 57 30 57 2 0 3 -13 2 -29z m-2072 3 c3 -8 2
-12 -4 -9 -6 3 -10 10 -10 16 0 14 7 11 14 -7z m41 6 c3 -5 2 -10 -4 -10 -5 0
-13 5 -16 10 -3 6 -2 10 4 10 5 0 13 -4 16 -10z m1602 -12 c-3 -8 -6 -5 -6 6
-1 11 2 17 5 13 3 -3 4 -12 1 -19z m463 -3 c0 -14 -4 -25 -10 -25 -5 0 -10 11
-10 25 0 14 5 25 10 25 6 0 10 -11 10 -25z m-1990 -55 c0 -11 5 -20 10 -20 6
0 10 -9 10 -20 0 -11 -5 -20 -11 -20 -5 0 -8 4 -5 9 3 4 -1 17 -9 27 -17 22
-19 44 -5 44 6 0 10 -9 10 -20z m1181 -11 c-5 -13 -10 -19 -10 -12 -1 15 10
45 15 40 3 -2 0 -15 -5 -28z m-965 -18 c-13 -20 -26 -11 -26 16 0 25 1 26 16
11 9 -9 13 -21 10 -27z m-256 -45 c0 -16 -28 -42 -36 -33 -8 7 14 47 26 47 6
0 10 -6 10 -14z m30 4 c0 -6 13 -18 30 -29 16 -10 27 -21 23 -24 -12 -12 -20
-7 -47 28 -15 19 -22 35 -17 35 6 0 11 -5 11 -10z m1104 -15 c-4 -8 -10 -12
-15 -9 -11 6 -2 24 11 24 5 0 7 -7 4 -15z m852 -17 c5 -8 2 -9 -9 -5 -10 3
-17 2 -17 -3 0 -6 5 -10 11 -10 6 0 9 -8 7 -17 -2 -10 -8 -18 -13 -17 -15 1
-36 -23 -40 -47 -6 -33 -15 -36 -15 -6 0 19 -4 25 -15 21 -8 -4 -15 -3 -15 0
0 4 14 12 30 18 20 6 32 19 36 36 11 45 25 55 40 30z m174 -28 c0 -16 -5 -30
-11 -30 -6 0 -8 9 -4 21 5 14 2 25 -6 30 -11 7 -10 9 4 9 12 0 17 -8 17 -30z
m-2210 10 c0 -5 -5 -10 -11 -10 -5 0 -7 5 -4 10 3 6 8 10 11 10 2 0 4 -4 4
-10z m385 -10 c3 -6 -4 -10 -17 -10 -18 0 -20 2 -8 10 19 12 18 12 25 0z m640
-26 c-10 -8 -16 -17 -12 -20 4 -4 1 -14 -6 -23 -10 -14 -10 -14 4 -4 9 7 19
10 22 6 4 -3 7 1 7 10 0 9 9 21 20 27 17 9 20 8 20 -9 0 -11 -9 -25 -21 -32
-13 -7 -19 -17 -16 -29 8 -30 -7 -44 -27 -25 -9 9 -16 12 -16 7 0 -5 6 -15 14
-22 17 -13 11 -36 -11 -44 -10 -4 -13 -2 -10 8 3 8 -2 20 -11 28 -8 7 -13 8
-9 2 7 -12 -60 -50 -70 -40 -12 12 9 37 44 54 41 18 58 35 43 40 -17 6 -11 38
11 66 11 14 25 23 31 20 7 -5 4 -12 -7 -20z m425 10 c0 -8 -4 -12 -10 -9 -5 3
-10 10 -10 16 0 5 5 9 10 9 6 0 10 -7 10 -16z m666 -12 c-18 -16 -18 -16 -6 6
6 13 14 21 18 18 3 -4 -2 -14 -12 -24z m-1776 3 c0 -8 -7 -15 -15 -15 -26 0
-18 20 13 29 1 1 2 -6 2 -14z m243 -10 c-3 -8 0 -15 7 -15 9 0 11 -15 6 -57
-9 -77 -14 -90 -33 -97 -31 -12 -45 13 -37 73 4 31 9 58 13 61 3 3 12 17 20
32 14 28 35 30 24 3z m24 3 c-3 -8 -6 -5 -6 6 -1 11 2 17 5 13 3 -3 4 -12 1
-19z m-100 -80 c-2 -18 -4 -6 -4 27 0 33 2 48 4 33 2 -15 2 -42 0 -60z m823
58 c0 -2 -7 -9 -15 -16 -13 -11 -14 -10 -9 4 5 14 24 23 24 12z m137 -18 c-3
-8 -6 -5 -6 6 -1 11 2 17 5 13 3 -3 4 -12 1 -19z m577 7 c-4 -8 -8 -15 -10
-15 -2 0 -4 7 -4 15 0 8 4 15 10 15 5 0 7 -7 4 -15z m-1780 -11 c8 -22 8 -26
-4 -19 -5 3 -10 1 -10 -5 0 -6 -5 -8 -10 -5 -8 5 -8 11 -1 19 6 7 8 16 4 19
-3 4 -2 7 4 7 6 0 14 -7 17 -16z m1756 12 c0 -3 -4 -8 -10 -11 -5 -3 -10 -1
-10 4 0 6 5 11 10 11 6 0 10 -2 10 -4z m-1138 -15 c-8 -4 -14 -12 -14 -17 -1
-5 -8 -19 -16 -32 -14 -22 -16 -22 -25 -6 -8 14 -4 23 17 41 15 13 32 23 39
23 8 0 8 -3 -1 -9z m-182 -17 c0 -8 -4 -12 -10 -9 -5 3 -10 10 -10 16 0 5 5 9
10 9 6 0 10 -7 10 -16z m97 -6 c-3 -8 -6 -5 -6 6 -1 11 2 17 5 13 3 -3 4 -12
1 -19z m1013 12 c0 -5 -5 -10 -11 -10 -5 0 -7 5 -4 10 3 6 8 10 11 10 2 0 4
-4 4 -10z m354 1 c7 -11 -22 -23 -35 -15 -5 3 -7 10 -4 15 8 12 32 12 39 0z
m-1922 -53 c-7 -7 -12 -8 -12 -2 0 14 12 26 19 19 2 -3 -1 -11 -7 -17z m48 12
c0 -5 -2 -10 -4 -10 -3 0 -8 5 -11 10 -3 6 -1 10 4 10 6 0 11 -4 11 -10z m400
-5 c-7 -9 -15 -13 -19 -10 -3 3 1 10 9 15 21 14 24 12 10 -5z m97 -7 c-3 -8
-6 -5 -6 6 -1 11 2 17 5 13 3 -3 4 -12 1 -19z m-614 -55 c-6 -16 -5 -16 10 -4
19 15 22 5 7 -19 -7 -11 -12 -12 -21 -3 -11 11 -7 43 5 43 3 0 2 -8 -1 -17z
m627 -2 c0 -5 -6 -11 -14 -14 -8 -3 -12 -14 -9 -25 3 -12 -6 -29 -25 -48 -24
-24 -26 -30 -11 -30 9 0 16 4 13 7 -2 4 0 10 6 14 5 3 10 1 10 -6 0 -7 3 -9 6
-6 10 10 63 -65 64 -88 0 -30 -25 -96 -34 -88 -4 4 -4 0 0 -10 4 -12 13 -16
25 -12 13 4 19 1 19 -9 0 -9 -2 -16 -4 -16 -2 0 -11 -3 -20 -6 -10 -4 -16 -1
-16 9 0 8 -7 18 -16 21 -13 5 -15 2 -11 -16 5 -21 5 -21 -7 -5 -19 24 -24 21
-28 -15 -3 -35 -38 163 -38 216 0 21 -4 27 -15 22 -20 -7 -19 7 5 49 11 20 20
38 20 41 0 12 -22 -10 -30 -30 l-9 -21 0 21 c-1 33 26 51 51 35 17 -11 23 -10
36 3 18 18 32 21 32 7z m-193 -33 c-3 -7 -5 -2 -5 12 0 14 2 19 5 13 2 -7 2
-19 0 -25z m-366 -23 c5 4 9 2 9 -4 0 -15 -21 -24 -31 -14 -5 5 -6 18 -2 29 7
17 8 17 11 1 2 -9 8 -15 13 -12z m306 -17 c-3 -7 -5 -2 -5 12 0 14 2 19 5 13
2 -7 2 -19 0 -25z m534 -12 c5 3 9 1 9 -5 0 -5 -4 -13 -10 -16 -5 -3 -10 -1
-10 5 0 7 -7 9 -16 6 -15 -6 -15 -4 -3 10 8 10 15 12 17 5 2 -6 8 -9 13 -5z
m367 -11 c-6 -14 -13 -23 -15 -21 -5 5 15 46 22 46 3 0 -1 -11 -7 -25z m-783
5 c3 -5 1 -10 -4 -10 -6 0 -11 5 -11 10 0 6 2 10 4 10 3 0 8 -4 11 -10z m-74
-62 l-4 -63 -10 38 c-6 27 -6 46 2 63 6 13 12 24 13 24 2 0 1 -28 -1 -62z
m-426 42 c-4 -6 -1 -18 7 -27 11 -14 11 -16 -2 -11 -18 5 -27 48 -10 48 6 0 8
-5 5 -10z m1135 -15 c-7 -9 -15 -13 -17 -11 -7 7 7 26 19 26 6 0 6 -6 -2 -15z
m880 -13 c0 -5 -12 -14 -27 -21 -24 -10 -26 -9 -11 2 10 8 15 17 11 20 -3 4 1
7 10 7 10 0 17 -4 17 -8z m-660 -6 c0 -3 -4 -8 -10 -11 -5 -3 -10 -1 -10 4 0
6 5 11 10 11 6 0 10 -2 10 -4z m539 -12 c2 -2 -6 -4 -18 -4 -12 0 -20 -4 -17
-9 3 -4 -6 -6 -19 -3 -27 5 -33 17 -12 25 11 5 57 -2 66 -9z m-99 -4 c0 -5 -7
-10 -16 -10 -8 0 -12 5 -9 10 3 6 10 10 16 10 5 0 9 -4 9 -10z m-1795 -38 c-3
-3 -11 0 -18 7 -9 10 -8 11 6 5 10 -3 15 -9 12 -12z m-75 -16 c0 -3 -4 -8 -10
-11 -5 -3 -10 -1 -10 4 0 6 5 11 10 11 6 0 10 -2 10 -4z m1031 -17 c9 -17 8
-23 -2 -30 -21 -13 -26 -11 -32 13 -11 40 14 53 34 17z m889 17 c0 -11 -19
-15 -25 -6 -3 5 1 10 9 10 9 0 16 -2 16 -4z m-1021 -30 c-18 -17 -69 -30 -69
-17 0 10 72 42 79 35 3 -3 -2 -11 -10 -18z m1051 14 c0 -5 -2 -10 -4 -10 -3 0
-8 5 -11 10 -3 6 -1 10 4 10 6 0 11 -4 11 -10z m-1386 -35 c-4 -8 -8 -15 -10
-15 -2 0 -4 7 -4 15 0 8 4 15 10 15 5 0 7 -7 4 -15z m895 -9 c-9 -19 -14 -22
-25 -13 -10 10 -10 14 4 25 25 19 33 14 21 -12z m-878 -9 c-10 -9 -11 -8 -5 6
3 10 9 15 12 12 3 -3 0 -11 -7 -18z m395 -15 c-14 -14 -16 -14 -16 -1 0 20 23
44 29 28 2 -6 -4 -18 -13 -27z m869 18 c-3 -5 -14 -10 -23 -10 -15 0 -15 2 -2
10 20 13 33 13 25 0z m-1376 -36 c22 -28 20 -44 -7 -44 -12 0 -13 -3 -4 -12 9
-9 15 -9 23 -1 6 6 18 9 25 6 18 -7 0 -43 -22 -43 -21 0 -44 -24 -44 -47 -1
-17 -1 -17 -10 -1 -7 11 -7 32 -1 57 5 23 6 43 2 46 -10 6 -1 65 9 65 5 0 18
-12 29 -26z m1109 9 c-4 -27 -68 -48 -68 -23 0 6 11 10 25 10 14 0 28 7 31 15
8 21 16 19 12 -2z m-1648 -1 c0 -13 -12 -22 -22 -16 -10 6 -1 24 13 24 5 0 9
-4 9 -8z m1950 -1 c0 -5 -16 -11 -35 -13 -41 -5 -48 9 -7 15 15 2 30 5 35 6 4
0 7 -3 7 -8z m-1660 -56 c5 3 18 -8 30 -25 18 -25 19 -31 6 -36 -9 -3 -12 -12
-9 -22 4 -10 -1 -8 -15 6 -31 31 -49 20 -45 -28 2 -30 -1 -40 -12 -40 -8 0
-15 6 -15 13 0 9 -3 8 -9 -2 -6 -9 1 -22 22 -42 16 -16 28 -29 26 -29 -2 0
-19 4 -36 9 -21 6 -35 6 -39 0 -3 -6 -12 -5 -22 3 -13 11 -15 10 -9 -5 3 -9 2
-17 -4 -17 -6 0 -8 -4 -5 -8 2 -4 -4 -9 -15 -9 -22 -2 -24 8 -7 25 9 9 7 12
-10 12 -14 0 -20 -5 -16 -14 3 -7 -2 -16 -12 -20 -12 -4 -15 -2 -10 9 4 12 -3
15 -30 15 -19 0 -44 5 -54 10 -16 9 -44 14 -97 19 -15 1 -18 31 -3 31 6 0 10
-4 10 -10 0 -5 18 -10 40 -10 22 0 40 5 40 10 0 6 10 10 21 10 16 0 20 -5 16
-19 -4 -15 2 -20 26 -24 45 -6 66 2 73 30 5 19 12 24 30 20 54 -10 69 40 25
84 -16 16 -34 29 -40 29 -6 0 -11 5 -11 10 0 6 8 10 18 10 15 0 45 -35 78 -93
10 -16 12 -12 11 29 0 30 4 49 12 52 8 3 6 8 -6 18 -15 12 -16 15 -3 23 10 7
18 4 28 -10 7 -11 17 -17 22 -14z m1260 -5 c12 -8 9 -10 -12 -10 -16 0 -28 5
-28 10 0 13 20 13 40 0z m-102 -7 c-10 -2 -26 -2 -35 0 -10 3 -2 5 17 5 19 0
27 -2 18 -5z m180 0 c-10 -2 -26 -2 -35 0 -10 3 -2 5 17 5 19 0 27 -2 18 -5z
m-1194 -19 c3 -8 2 -12 -4 -9 -6 3 -10 10 -10 16 0 14 7 11 14 -7z m476 7 c0
-12 -20 -25 -27 -18 -7 7 6 27 18 27 5 0 9 -4 9 -9z m915 -22 c5 -5 -18 -8
-55 -8 -36 1 -54 4 -40 6 14 3 29 9 35 14 10 10 44 3 60 -12z m-1417 -50 c4
-24 3 -24 -12 -4 -19 24 -20 38 -3 33 6 -3 13 -15 15 -29z m-313 12 c3 -5 1
-12 -5 -16 -5 -3 -10 1 -10 9 0 18 6 21 15 7z m1722 3 c28 -8 20 -24 -10 -24
-17 0 -19 2 -8 9 11 7 10 10 -5 14 -10 2 -14 5 -9 6 6 0 20 -2 32 -5z m-1330
-49 c0 -8 -4 -15 -9 -15 -4 0 -8 7 -8 15 0 8 4 15 8 15 5 0 9 -7 9 -15z m1273
5 c0 -5 -9 -10 -21 -10 -11 0 -17 5 -14 10 3 6 13 10 21 10 8 0 14 -4 14 -10z
m-1374 -16 c-3 -9 -6 -18 -6 -20 0 -2 -7 -4 -15 -4 -18 0 -19 12 -3 28 17 17
31 15 24 -4z m54 -28 c0 -5 -7 -3 -15 4 -8 7 -12 17 -9 22 7 10 24 -9 24 -26z
m129 8 c-11 -13 -9 -14 17 -8 16 4 26 3 22 -1 -10 -11 -98 -15 -98 -4 0 5 7 9
15 9 8 0 15 5 15 10 0 6 10 10 21 10 18 0 20 -2 8 -16z m-231 -17 c7 -15 -4
-26 -31 -31 -23 -4 -28 -2 -23 10 3 9 6 19 6 23 0 9 44 7 48 -2z m1481 8 c-9
-9 -187 -13 -200 -4 -9 5 29 9 95 9 60 0 107 -2 105 -5z m51 -5 c8 -5 11 -10
5 -10 -5 0 -17 5 -25 10 -8 5 -10 10 -5 10 6 0 17 -5 25 -10z m-47 -21 c12 -1
-3 -5 -33 -9 -30 -4 -57 -5 -59 -4 -8 6 44 23 57 18 8 -2 23 -5 35 -5z m-1898
-9 c-3 -5 -10 -10 -16 -10 -5 0 -9 5 -9 10 0 6 7 10 16 10 8 0 12 -4 9 -10z
m1555 -10 c0 -5 -5 -10 -11 -10 -5 0 -7 5 -4 10 3 6 8 10 11 10 2 0 4 -4 4
-10z m-1035 -10 c3 -5 1 -10 -4 -10 -6 0 -11 5 -11 10 0 6 2 10 4 10 3 0 8 -4
11 -10z m50 0 c3 -5 1 -10 -4 -10 -6 0 -11 5 -11 10 0 6 2 10 4 10 3 0 8 -4
11 -10z m-242 -7 c-7 -2 -19 -2 -25 0 -7 3 -2 5 12 5 14 0 19 -2 13 -5z m297
-18 c0 -8 -2 -15 -4 -15 -2 0 -6 7 -10 15 -3 8 -1 15 4 15 6 0 10 -7 10 -15z
m-375 -5 c-3 -5 -16 -10 -28 -9 -20 1 -20 2 3 9 14 4 26 8 28 9 2 1 0 -3 -3
-9z m20 -20 c-3 -5 -11 -10 -16 -10 -6 0 -7 5 -4 10 3 6 11 10 16 10 6 0 7 -4
4 -10z m-15 -24 c0 -2 -7 -7 -16 -10 -8 -3 -12 -2 -9 4 6 10 25 14 25 6z m219
-12 c2 -2 1 -7 -2 -11 -4 -4 -12 -2 -18 4 -6 6 -18 9 -25 6 -8 -3 -14 0 -14 7
0 8 9 10 27 5 16 -4 30 -9 32 -11z m-135 -9 c-10 -8 -23 -15 -28 -15 -6 0 -1
7 10 15 10 8 23 15 28 15 6 0 1 -7 -10 -15z m916 5 c0 -5 -5 -10 -11 -10 -5 0
-7 5 -4 10 3 6 8 10 11 10 2 0 4 -4 4 -10z m600 0 c0 -5 -7 -10 -16 -10 -8 0
-12 5 -9 10 3 6 10 10 16 10 5 0 9 -4 9 -10z"/>
<path d="M1623 3880 c-13 -5 -23 -12 -23 -15 0 -9 16 -5 36 10 22 16 19 18
-13 5z"/>
<path d="M1491 3854 c-12 -27 -11 -28 4 -12 10 9 16 21 13 28 -2 7 -10 -1 -17
-16z"/>
<path d="M1678 3862 c9 -10 19 -17 21 -16 6 5 -20 34 -30 34 -5 0 -1 -8 9 -18z"/>
<path d="M1670 3823 c8 -3 24 -10 35 -15 20 -9 20 -9 1 6 -11 9 -27 16 -35 15
-14 0 -14 -1 -1 -6z"/>
<path d="M1146 3785 c4 -8 10 -15 15 -15 4 0 6 7 3 15 -4 8 -10 15 -15 15 -4
0 -6 -7 -3 -15z"/>
<path d="M1408 3753 c-14 -2 -32 -11 -38 -19 -16 -18 -15 -18 45 6 49 19 48
21 -7 13z"/>
<path d="M1721 3174 c0 -11 3 -14 6 -6 3 7 2 16 -1 19 -3 4 -6 -2 -5 -13z"/>
<path d="M1693 3123 c-1 -40 1 -52 7 -38 11 26 12 95 2 95 -5 0 -9 -26 -9 -57z"/>
<path d="M1777 3100 c3 -11 10 -23 15 -26 5 -3 4 -11 -2 -19 -9 -11 -5 -17 19
-29 16 -9 33 -16 36 -16 3 0 -11 25 -31 55 -20 30 -38 55 -39 55 -2 0 -1 -9 2
-20z"/>
<path d="M1980 3059 c35 -50 140 -179 147 -179 9 0 -7 82 -19 97 -12 15 -110
92 -137 108 -8 5 -4 -7 9 -26z"/>
<path d="M1790 3016 c0 -2 8 -10 18 -17 15 -13 16 -12 3 4 -13 16 -21 21 -21
13z"/>
<path d="M1280 2973 c0 -6 -9 -10 -20 -8 -11 2 -20 -1 -20 -6 0 -15 27 -22 58
-14 18 5 22 9 12 13 -8 3 -18 10 -22 16 -6 8 -8 7 -8 -1z"/>
<path d="M2156 2899 c9 -28 27 -55 46 -69 l31 -23 -24 40 c-13 22 -34 52 -46
69 l-23 29 16 -46z"/>
<path d="M1835 2900 c3 -5 8 -10 11 -10 2 0 4 5 4 10 0 6 -5 10 -11 10 -5 0
-7 -4 -4 -10z"/>
<path d="M2201 2770 c23 -33 43 -60 45 -60 2 0 4 12 4 26 0 16 -13 39 -34 60
-53 53 -61 40 -15 -26z"/>
<path d="M1106 2785 c-11 -8 -15 -15 -9 -15 6 0 16 7 23 15 16 19 11 19 -14 0z"/>
<path d="M1178 2769 c-17 -7 -25 -15 -21 -24 4 -12 9 -12 26 -3 12 7 47 18 77
24 l55 12 -55 0 c-30 0 -67 -4 -82 -9z"/>
<path d="M1645 2770 c3 -5 8 -10 11 -10 2 0 4 5 4 10 0 6 -5 10 -11 10 -5 0
-7 -4 -4 -10z"/>
<path d="M2116 2725 c-9 -26 -7 -32 5 -12 6 10 9 21 6 23 -2 3 -7 -2 -11 -11z"/>
<path d="M1456 2709 c21 -23 21 -23 21 -5 0 8 -9 17 -20 20 -18 4 -18 4 -1
-15z"/>
<path d="M1062 2703 c-15 -27 -15 -45 -1 -20 6 9 14 15 18 12 5 -2 15 3 22 13
13 15 12 16 -3 4 -13 -10 -17 -10 -20 0 -3 8 -9 5 -16 -9z"/>
<path d="M2045 2618 l-16 -33 20 25 c20 24 26 40 16 40 -2 0 -12 -15 -20 -32z"/>
<path d="M2269 2633 c15 -30 14 -36 -5 -29 -13 5 -14 4 -6 -7 7 -8 9 -17 5
-21 -4 -4 0 -4 10 0 9 3 17 10 17 16 0 5 5 6 10 3 17 -10 11 1 -16 31 -19 21
-23 23 -15 7z"/>
<path d="M1469 2544 c1 -25 5 -43 8 -41 8 9 6 68 -3 77 -5 5 -8 -9 -5 -36z"/>
<path d="M275 2510 c-3 -5 -2 -10 4 -10 5 0 13 5 16 10 3 6 2 10 -4 10 -5 0
-13 -4 -16 -10z"/>
<path d="M852 2504 c9 -10 24 -14 33 -10 23 9 9 26 -23 26 -24 0 -25 -1 -10
-16z"/>
<path d="M1020 2418 c0 -12 -3 -19 -6 -15 -3 3 -17 -5 -31 -19 -24 -24 -50
-33 -37 -13 5 8 1 8 -14 0 -25 -13 -35 -14 -28 -2 3 5 -1 11 -9 15 -28 10 -46
-34 -41 -99 3 -38 2 -49 -2 -30 -7 27 -9 25 -15 -25 -4 -30 -4 -71 -1 -90 3
-19 5 -48 5 -65 0 -16 3 -32 7 -35 4 -3 16 -16 27 -29 l20 -25 -39 22 c-29 17
-37 19 -33 7 4 -8 4 -22 0 -30 -4 -12 -13 -6 -35 25 -16 22 -32 40 -34 40 -7
0 5 -19 38 -62 l29 -37 -22 -43 -22 -43 23 20 22 20 -7 -53 c-6 -44 -5 -51 8
-46 8 3 18 1 21 -4 9 -15 -4 -42 -21 -42 -8 0 -12 -4 -8 -9 3 -5 1 -12 -5 -16
-5 -3 -10 -15 -10 -27 0 -17 2 -18 15 -8 9 7 13 15 11 18 -3 2 8 15 25 29 16
14 29 31 29 38 0 7 11 16 24 19 14 3 28 15 31 26 4 11 11 18 16 15 5 -4 26 7
46 22 20 15 34 23 30 17 -4 -7 0 -17 8 -24 12 -10 13 -7 5 19 -5 17 -6 31 -2
31 3 0 1 5 -6 12 -9 9 -9 15 1 28 6 9 -7 -4 -30 -29 -24 -25 -43 -41 -43 -37
0 11 82 146 118 194 27 37 27 35 -12 187 -14 55 -26 117 -26 138 0 20 -4 37
-10 37 -5 0 -10 -10 -10 -22z m-80 -71 c0 -18 -35 -59 -43 -51 -8 9 21 64 33
64 6 0 10 -6 10 -13z m50 -1 c0 -16 -18 -31 -27 -22 -8 8 5 36 17 36 5 0 10
-6 10 -14z m40 4 c0 -5 -5 -10 -11 -10 -5 0 -7 5 -4 10 3 6 8 10 11 10 2 0 4
-4 4 -10z m-70 -79 c0 -11 -4 -22 -9 -25 -11 -7 -20 14 -13 32 7 19 22 14 22
-7z m-65 -221 c3 -5 2 -10 -4 -10 -5 0 -13 5 -16 10 -3 6 -2 10 4 10 5 0 13
-4 16 -10z"/>
<path d="M1071 2362 c-1 -18 6 -46 13 -61 8 -15 13 -39 10 -52 l-5 -24 14 25
c12 19 13 30 4 45 -6 11 -16 38 -23 60 l-13 40 0 -33z"/>
<path d="M2090 2385 c0 -5 5 -17 10 -25 5 -8 10 -10 10 -5 0 6 -5 17 -10 25
-5 8 -10 11 -10 5z"/>
<path d="M2095 2294 c-9 -15 -12 -23 -6 -20 11 7 35 46 28 46 -3 0 -12 -12
-22 -26z"/>
<path d="M2012 2190 c-13 -6 -51 -13 -85 -18 l-62 -8 42 -14 c39 -12 44 -11
87 14 25 15 46 29 46 31 0 6 1 6 -28 -5z"/>
<path d="M1117 2120 c-3 -11 -3 -20 -1 -20 2 0 8 9 14 20 6 11 7 20 2 20 -6 0
-12 -9 -15 -20z"/>
<path d="M707 2099 c7 -7 15 -10 18 -7 3 3 -2 9 -12 12 -14 6 -15 5 -6 -5z"/>
<path d="M735 2070 c-3 -5 -1 -10 4 -10 6 0 11 5 11 10 0 6 -2 10 -4 10 -3 0
-8 -4 -11 -10z"/>
<path d="M800 2060 c0 -5 5 -10 11 -10 5 0 7 5 4 10 -3 6 -8 10 -11 10 -2 0
-4 -4 -4 -10z"/>
<path d="M1103 2041 c0 -11 5 -18 9 -15 4 3 5 11 1 19 -7 21 -12 19 -10 -4z"/>
<path d="M534 2018 l-19 -23 23 19 c12 11 22 21 22 23 0 8 -8 2 -26 -19z"/>
<path d="M1752 2025 c-11 -12 -10 -15 3 -15 8 0 15 7 15 15 0 18 -2 18 -18 0z"/>
<path d="M631 1829 l-21 -34 34 -3 c21 -2 46 4 61 14 24 15 25 18 10 27 -11 6
-26 5 -42 -2 -32 -15 -38 -14 -23 4 7 9 10 18 7 21 -3 4 -15 -9 -26 -27z"/>
<path d="M740 1771 c-21 -42 -20 -61 4 -61 22 0 40 30 43 68 l2 36 -15 -30
c-8 -16 -20 -33 -26 -39 -6 -5 -3 5 7 23 9 19 14 36 11 39 -2 3 -14 -14 -26
-36z"/>
<path d="M685 1760 c-4 -6 -10 -8 -15 -5 -4 3 -10 -2 -14 -10 -3 -8 -1 -15 5
-15 6 0 7 -5 4 -10 -4 -6 -15 -1 -27 12 -13 15 -18 18 -15 7 4 -12 1 -15 -11
-12 -9 2 -26 -3 -37 -12 -19 -16 -19 -16 4 -4 21 10 23 9 18 -6 -4 -9 -7 -21
-7 -27 0 -6 -6 -8 -14 -5 -17 7 -58 -21 -50 -34 3 -5 15 -7 26 -3 15 4 18 3
13 -6 -6 -10 -1 -12 18 -8 14 3 26 2 25 -1 -7 -60 16 -28 71 102 19 43 22 62
6 37z m-125 -110 c-8 -5 -19 -10 -25 -10 -5 0 -3 5 5 10 8 5 20 10 25 10 6 0
3 -5 -5 -10z m67 -6 c-3 -3 -12 -4 -19 -1 -8 3 -5 6 6 6 11 1 17 -2 13 -5z"/>
<path d="M430 1752 c0 -5 11 -19 24 -31 22 -21 26 -22 53 -7 16 8 35 22 42 30
12 14 6 16 -53 16 -36 0 -66 -4 -66 -8z"/>
<path d="M820 1689 c0 -5 5 -7 10 -4 6 3 10 8 10 11 0 2 -4 4 -10 4 -5 0 -10
-5 -10 -11z"/>
<path d="M686 1663 c-20 -41 -20 -43 4 -43 25 0 33 19 22 50 l-9 25 -17 -32z"/>
<path d="M463 1663 c0 -12 4 -20 8 -17 4 2 9 -4 11 -13 2 -12 6 -14 11 -7 4 7
-2 23 -12 35 -20 24 -20 24 -18 2z"/>
<path d="M773 1634 c3 -4 2 -15 -4 -25 -7 -15 -6 -19 5 -19 8 0 17 4 20 9 8
13 -4 41 -17 41 -6 0 -7 -3 -4 -6z"/>
<path d="M510 1610 c0 -5 5 -10 11 -10 5 0 7 5 4 10 -3 6 -8 10 -11 10 -2 0
-4 -4 -4 -10z"/>
<path d="M724 1604 c-18 -14 -18 -15 4 -4 12 6 22 13 22 15 0 8 -5 6 -26 -11z"/>
<path d="M428 1587 c-23 -13 -27 -21 -19 -31 6 -7 8 -16 4 -20 -4 -4 0 -4 10
0 9 3 14 11 10 18 -4 6 1 4 11 -3 17 -14 17 -15 0 -28 -16 -12 -13 -17 8 -14
4 0 5 -5 2 -13 -3 -8 11 -27 33 -45 41 -34 58 -39 49 -16 -3 8 -2 15 2 15 4 0
8 10 9 21 2 21 1 21 -13 3 -9 -11 -13 -14 -10 -7 4 6 2 15 -4 18 -8 5 -7 11 1
21 9 11 9 17 0 28 -7 8 -11 23 -9 33 2 10 -2 17 -9 16 -7 -2 -10 4 -7 12 8 19
-30 16 -68 -8z m66 -47 c-6 -6 -10 -3 -10 10 0 13 4 16 10 10 7 -7 7 -13 0
-20z m26 -14 c0 -2 -7 -7 -16 -10 -8 -3 -12 -2 -9 4 6 10 25 14 25 6z"/>
<path d="M553 1565 c-7 -19 16 -105 28 -105 12 0 11 7 -7 42 -12 24 -13 36 -5
54 7 16 7 24 0 24 -5 0 -12 -7 -16 -15z"/>
<path d="M330 1545 c0 -8 4 -15 9 -15 5 0 14 7 21 15 10 13 9 15 -9 15 -12 0
-21 -6 -21 -15z"/>
<path d="M655 1530 c4 -6 11 -8 16 -5 14 9 11 15 -7 15 -8 0 -12 -5 -9 -10z"/>
<path d="M385 1499 c-4 -6 -5 -12 -2 -15 2 -3 7 2 10 11 7 17 1 20 -8 4z"/>
<path d="M271 1474 c0 -11 3 -14 6 -6 3 7 2 16 -1 19 -3 4 -6 -2 -5 -13z"/>
<path d="M720 1440 c-6 -11 -8 -20 -6 -20 3 0 10 9 16 20 6 11 8 20 6 20 -3 0
-10 -9 -16 -20z"/>
<path d="M1806 1434 c-3 -8 -2 -12 3 -9 5 3 13 0 17 -6 4 -6 -1 -16 -10 -21
-9 -5 -16 -16 -16 -24 0 -8 -4 -13 -9 -10 -5 3 -14 -8 -20 -26 -14 -39 -14
-38 2 -38 20 0 60 47 45 53 -7 3 1 8 19 12 l32 7 -26 39 c-29 45 -29 44 -37
23z"/>
<path d="M295 1430 c3 -5 8 -10 11 -10 2 0 4 5 4 10 0 6 -5 10 -11 10 -5 0 -7
-4 -4 -10z"/>
<path d="M373 1414 c-7 -7 -13 -20 -13 -27 0 -15 30 -45 30 -31 0 5 9 -2 20
-16 15 -20 22 -22 31 -13 10 10 9 16 -4 31 -9 10 -17 23 -17 28 0 5 9 -2 19
-15 13 -17 23 -22 39 -16 30 9 46 40 32 63 -9 14 -10 13 -5 -6 7 -23 7 -23
-19 -7 -14 10 -26 14 -26 9 0 -4 -5 -3 -12 4 -16 16 -52 16 -42 0 6 -10 5 -10
-7 -2 -11 9 -17 9 -26 -2z"/>
<path d="M658 1413 c7 -3 16 -2 19 1 4 3 -2 6 -13 5 -11 0 -14 -3 -6 -6z"/>
<path d="M970 1395 c-2 -5 -2 -14 -1 -19 1 -5 -3 -12 -9 -16 -13 -8 -3 -60 11
-60 5 0 9 11 9 25 0 13 7 28 16 33 11 6 13 11 5 16 -6 4 -11 4 -12 -1 0 -4 -4
1 -9 12 -5 11 -9 16 -10 10z"/>
<path d="M525 1371 c-3 -5 -2 -12 3 -15 5 -3 9 1 9 9 0 17 -3 19 -12 6z"/>
<path d="M745 1311 c3 -5 -4 -12 -15 -16 -20 -6 -25 -20 -21 -62 2 -29 -32
-47 -86 -44 -46 1 -53 -5 -26 -24 12 -9 24 -10 38 -4 20 10 20 10 0 -6 -12
-10 -30 -14 -45 -10 l-25 5 24 -20 c28 -24 40 -25 48 -4 6 15 8 15 21 -2 13
-18 14 -17 9 13 -5 25 -2 33 12 38 10 3 31 23 46 45 15 22 32 40 36 40 16 0
10 48 -7 54 -8 3 -12 2 -9 -3z"/>
<path d="M401 1294 c21 -25 48 -36 65 -26 19 11 12 16 -39 30 -34 9 -37 9 -26
-4z"/>
<path d="M662 1291 c-11 -6 -10 -10 0 -19 11 -8 14 -7 14 9 0 10 0 19 -1 19 0
0 -6 -4 -13 -9z"/>
<path d="M1810 1286 c0 -8 4 -17 9 -20 10 -7 23 19 14 28 -11 11 -23 6 -23 -8z"/>
<path d="M505 1279 c-11 -17 1 -21 15 -4 8 9 8 15 2 15 -6 0 -14 -5 -17 -11z"/>
<path d="M1847 1263 c-7 -15 -12 -36 -9 -46 3 -15 -1 -17 -22 -11 -18 4 -26 2
-26 -7 0 -12 -2 -12 -9 -1 -7 11 -9 11 -14 -1 -3 -9 6 -28 24 -46 31 -33 54
-44 25 -12 -10 11 -13 22 -8 25 6 3 12 -1 16 -9 3 -9 18 -15 35 -15 34 0 67
-36 51 -55 -6 -7 -3 -11 10 -11 28 0 22 62 -7 75 -13 6 -23 20 -23 31 0 12 -7
35 -16 52 -9 16 -11 27 -6 24 17 -10 23 11 8 24 -12 9 -17 6 -29 -17z"/>
<path d="M887 1229 c-10 -6 -27 -9 -38 -6 -21 6 -35 -8 -19 -18 12 -7 77 12
85 26 8 12 -5 11 -28 -2z"/>
<path d="M580 1220 c-9 -6 -10 -10 -3 -10 6 0 15 5 18 10 8 12 4 12 -15 0z"/>
<path d="M427 1203 c-3 -5 -1 -19 4 -32 9 -22 11 -23 27 -8 10 9 23 13 28 9 5
-4 -1 3 -14 16 -24 23 -38 27 -45 15z"/>
<path d="M860 1180 c-8 -5 -11 -12 -8 -15 4 -4 17 0 30 9 24 17 5 23 -22 6z"/>
<path d="M1565 1140 c6 -41 27 -90 38 -90 4 0 3 10 -4 21 -6 12 -17 40 -25 63
-13 39 -14 40 -9 6z"/>
<path d="M1870 1126 c0 -2 8 -10 18 -17 15 -13 16 -12 3 4 -13 16 -21 21 -21
13z"/>
<path d="M1951 1104 c0 -11 3 -14 6 -6 3 7 2 16 -1 19 -3 4 -6 -2 -5 -13z"/>
<path d="M551 1083 c0 -25 1 -26 9 -8 12 27 12 35 0 35 -5 0 -10 -12 -9 -27z"/>
<path d="M732 1098 c-14 -14 -16 -28 -3 -28 9 0 24 30 18 36 -2 2 -9 -2 -15
-8z"/>
<path d="M520 1073 c0 -13 5 -23 10 -23 13 0 13 11 0 30 -8 12 -10 11 -10 -7z"/>
<path d="M735 1042 l-30 -37 27 17 c19 13 28 14 31 5 2 -6 4 3 4 21 0 17 -1
32 -1 32 -1 0 -14 -17 -31 -38z"/>
<path d="M1675 1000 c3 -5 8 -10 11 -10 2 0 4 5 4 10 0 6 -5 10 -11 10 -5 0
-7 -4 -4 -10z"/>
<path d="M1666 965 c-9 -26 -7 -32 5 -12 6 10 9 21 6 23 -2 3 -7 -2 -11 -11z"/>
<path d="M1596 817 c3 -10 9 -15 12 -12 3 3 0 11 -7 18 -10 9 -11 8 -5 -6z"/>
<path d="M1552 755 c0 -16 2 -22 5 -12 2 9 2 23 0 30 -3 6 -5 -1 -5 -18z"/>
<path d="M1962 748 c-7 -7 -12 -16 -12 -21 0 -5 7 -1 16 8 9 9 14 18 12 20 -2
3 -10 -1 -16 -7z"/>
<path d="M483 687 c-1 -30 -1 -31 9 -9 7 14 8 26 2 32 -5 5 -10 -4 -11 -23z"/>
<path d="M1970 710 c0 -5 4 -10 9 -10 6 0 13 5 16 10 3 6 -1 10 -9 10 -9 0
-16 -4 -16 -10z"/>
<path d="M1937 675 c-4 -8 -12 -15 -19 -16 -7 0 -23 -13 -35 -28 l-21 -27 31
5 c20 3 25 6 14 9 -14 3 -16 7 -6 18 6 8 17 14 24 14 13 0 29 29 21 37 -2 2
-6 -3 -9 -12z"/>
<path d="M505 620 c-3 -11 -2 -27 2 -35 6 -11 9 -5 9 20 0 40 -2 43 -11 15z"/>
<path d="M1842 422 c-10 -28 -9 -30 16 -35 15 -3 28 -5 29 -4 0 1 -7 17 -16
36 l-18 34 -11 -31z"/>
<path d="M315 430 c3 -5 8 -10 11 -10 2 0 4 5 4 10 0 6 -5 10 -11 10 -5 0 -7
-4 -4 -10z"/>
<path d="M1830 376 c0 -2 7 -7 16 -10 8 -3 12 -2 9 4 -6 10 -25 14 -25 6z"/>
<path d="M1620 1698 c0 -7 5 -20 10 -28 8 -12 10 -11 10 7 0 12 -4 25 -10 28
-5 3 -10 0 -10 -7z"/>
<path d="M664 822 c-15 -10 -34 -70 -28 -87 7 -18 16 -19 32 -3 15 15 16 32 2
23 -14 -8 -13 28 1 42 14 14 8 35 -7 25z"/>
<path d="M386 322 c-7 -12 22 -38 31 -28 4 3 0 14 -9 22 -9 10 -18 12 -22 6z"/>
<path d="M0 371 c0 -14 5 -19 15 -14 17 6 15 25 -3 31 -7 2 -12 -5 -12 -17z"/>
</g>
</svg>
