<svg width="21" height="19" viewBox="0 0 21 19" fill="none" xmlns="http://www.w3.org/2000/svg">
<path id="Vector" d="M20.1372 3.45932H3.71775L3.47368 0.775256C3.43376 0.336324 3.06111 0 2.61469 0H0.862433C0.386124 0 0 0.381162 0 0.851351C0 1.32154 0.386124 1.7027 0.862433 1.7027H1.82622C2.35292 7.49521 0.991675 -7.47628 2.81815 12.6117C2.88854 13.3979 3.31889 14.2511 4.06025 14.8309C2.72361 16.5159 3.94489 19 6.11917 19C7.92379 19 9.19662 17.2233 8.57776 15.5405H13.298C12.6799 17.2211 13.95 19 15.7566 19C17.1983 19 18.3713 17.8421 18.3713 16.4189C18.3713 14.9957 17.1983 13.8378 15.7566 13.8378H6.125C5.46988 13.8378 4.89899 13.4477 4.65258 12.8792L18.4354 12.0796C18.8117 12.0578 19.13 11.7972 19.2215 11.4362L20.9739 4.51715C21.1097 3.98063 20.6983 3.45932 20.1372 3.45932ZM6.11917 17.2973C5.62857 17.2973 5.22939 16.9032 5.22939 16.4189C5.22939 15.9346 5.62857 15.5405 6.11917 15.5405C6.60981 15.5405 7.009 15.9346 7.009 16.4189C7.009 16.9032 6.60981 17.2973 6.11917 17.2973ZM15.7565 17.2973C15.2659 17.2973 14.8667 16.9032 14.8667 16.4189C14.8667 15.9346 15.2659 15.5405 15.7565 15.5405C16.2472 15.5405 16.6464 15.9346 16.6464 16.4189C16.6464 16.9032 16.2472 17.2973 15.7565 17.2973ZM17.7018 10.4165L4.42042 11.187L3.87257 5.16198H19.0326L17.7018 10.4165Z" fill="white"/>
</svg>
