<svg width="20" height="16" viewBox="0 0 20 16" fill="none" xmlns="http://www.w3.org/2000/svg">
<path id="Vector" d="M18.3932 1.56783C16.218 -0.522327 12.6795 -0.522327 10.5049 1.56783L9.99982 2.05302L9.49503 1.56783C7.32046 -0.52261 3.78163 -0.52261 1.60706 1.56783C-0.52336 3.61555 -0.537194 6.8614 1.57498 9.11819C3.50142 11.1758 9.18303 15.6212 9.42409 15.8094C9.58774 15.9372 9.78465 15.9995 9.98039 15.9995C9.98687 15.9995 9.99334 15.9995 9.99952 15.9992C10.202 16.0082 10.406 15.9415 10.575 15.8094C10.816 15.6212 16.4982 11.1758 18.4252 9.11791C20.5371 6.8614 20.5233 3.61555 18.3932 1.56783ZM17.1125 7.98258C15.6105 9.58641 11.4818 12.8942 9.99952 14.068C8.51723 12.8945 4.38944 9.58698 2.88772 7.98287C1.41427 6.40874 1.40043 4.16694 2.85564 2.76823C3.59885 2.05416 4.57487 1.69684 5.5509 1.69684C6.52692 1.69684 7.50295 2.05387 8.24615 2.76823L9.35639 3.83537C9.48855 3.9624 9.65515 4.03822 9.82998 4.06481C10.1137 4.12338 10.4216 4.04727 10.6424 3.83565L11.7532 2.76823C13.2399 1.3398 15.6582 1.34008 17.144 2.76823C18.5992 4.16694 18.5854 6.40874 17.1125 7.98258Z" fill="white"/>
</svg>
