<svg width="16" height="16" viewBox="0 0 16 16" fill="none" xmlns="http://www.w3.org/2000/svg">
<g id="Vector">
<path d="M11.4992 16C10.9827 16 10.4706 15.9087 9.96982 15.7268C7.76372 14.9254 5.71599 13.6201 4.04793 11.9521C2.37986 10.284 1.0746 8.23629 0.273226 6.03019C0.0157045 5.32122 -0.0602926 4.58937 0.047422 3.8549C0.148324 3.16693 0.414814 2.49905 0.818111 1.92345C1.22319 1.34532 1.76323 0.864465 2.37983 0.532884C3.03737 0.179305 3.75506 4.75794e-08 4.51303 4.75794e-08C4.74877 4.75794e-08 4.95252 0.164712 5.00192 0.395203L5.7867 4.05752C5.82223 4.22336 5.77127 4.39591 5.65136 4.51585L4.31038 5.85679C5.5754 8.37188 7.62807 10.4245 10.1432 11.6896L11.4841 10.3486C11.604 10.2287 11.7766 10.1778 11.9424 10.2132L15.6048 10.998C15.8353 11.0474 16 11.2512 16 11.4869C16 12.2449 15.8207 12.9626 15.4671 13.6201C15.1355 14.2367 14.6546 14.7768 14.0765 15.1818C13.5009 15.5851 12.833 15.8516 12.145 15.9525C11.9294 15.9842 11.7139 16 11.4992 16ZM4.11355 1.02183C3.11374 1.1322 2.22634 1.65624 1.63705 2.4973C0.974387 3.44305 0.819861 4.60628 1.2131 5.6888C2.75379 9.93006 6.06994 13.2462 10.3112 14.7869C11.3937 15.1801 12.557 15.0256 13.5027 14.3629C14.3438 13.7737 14.8678 12.8863 14.9782 11.8864L11.9989 11.248L10.5985 12.6485C10.4494 12.7975 10.223 12.8371 10.0323 12.7475C7.05775 11.35 4.64997 8.94226 3.25252 5.96769C3.16293 5.77698 3.20249 5.55055 3.35151 5.40156L4.75196 4.00112L4.11355 1.02183Z" fill="#1AA64A"/>
<path d="M15.5 8.49965C15.2239 8.49965 15 8.27579 15 7.99967C15 4.14002 11.86 0.999959 8.00031 0.999959C7.72419 0.999959 7.50033 0.776093 7.50033 0.499979C7.50033 0.223866 7.72419 0 8.00031 0C10.1371 0 12.146 0.832091 13.657 2.34303C15.1679 3.85397 16 5.86285 16 7.99967C16 8.27579 15.7762 8.49965 15.5 8.49965Z" fill="#1AA64A"/>
<path d="M13.5001 8.49965C13.224 8.49965 13.0001 8.27579 13.0001 7.99967C13.0001 5.24278 10.7572 2.99988 8.00031 2.99988C7.72419 2.99988 7.50033 2.77601 7.50033 2.4999C7.50033 2.22378 7.72419 1.99992 8.00031 1.99992C11.3086 1.99992 14.0001 4.6914 14.0001 7.99967C14.0001 8.27579 13.7762 8.49965 13.5001 8.49965Z" fill="#1AA64A"/>
<path d="M11.5002 8.49965C11.2241 8.49965 11.0002 8.27579 11.0002 7.99967C11.0002 6.34552 9.65446 4.99979 8.00031 4.99979C7.72419 4.99979 7.50033 4.77593 7.50033 4.49982C7.50033 4.2237 7.72419 3.99984 8.00031 3.99984C10.2058 3.99984 12.0002 5.79414 12.0002 7.99967C12.0002 8.27579 11.7763 8.49965 11.5002 8.49965Z" fill="#1AA64A"/>
</g>
</svg>
