<svg width="29" height="29" viewBox="0 0 29 29" fill="none" xmlns="http://www.w3.org/2000/svg">
<path id="Vector" d="M24.9766 4.46223C22.2395 1.60514 18.4524 -0.00725574 14.4958 2.45473e-05C6.50012 -0.0100465 0.0100821 6.46388 1.14787e-05 14.46C-0.00496317 18.4138 1.60719 22.1976 4.46203 24.9329C4.47034 24.9411 4.47343 24.9536 4.48168 24.9608C4.56552 25.0416 4.65665 25.11 4.74158 25.1876C4.97454 25.3947 5.2075 25.609 5.45289 25.8089C5.58436 25.9124 5.72104 26.0159 5.85566 26.1112C6.08758 26.2841 6.31951 26.457 6.56175 26.6165C6.7264 26.7201 6.89621 26.8236 7.06492 26.9271C7.28854 27.0617 7.51118 27.1973 7.74208 27.3206C7.93779 27.4241 8.13756 27.5131 8.33637 27.6073C8.5538 27.7109 8.76813 27.8144 8.99072 27.9076C9.2133 28.0008 9.43698 28.0733 9.66266 28.154C9.88834 28.2348 10.083 28.3093 10.2994 28.3756C10.5438 28.4491 10.7943 28.506 11.0428 28.5671C11.2499 28.6178 11.4507 28.6758 11.664 28.7173C11.9498 28.7743 12.2397 28.8105 12.5296 28.8498C12.7088 28.8747 12.8837 28.9099 13.0649 28.9275C13.5391 28.9741 14.0174 29 14.4999 29C14.9824 29 15.4607 28.9741 15.9349 28.9275C16.1161 28.9099 16.2911 28.8747 16.4702 28.8498C16.7601 28.8105 17.0499 28.7743 17.3357 28.7173C17.5428 28.6758 17.7499 28.6137 17.957 28.5671C18.2055 28.506 18.456 28.4491 18.7004 28.3756C18.9168 28.3093 19.1259 28.2286 19.3371 28.154C19.5484 28.0795 19.7886 27.9987 20.0091 27.9076C20.2296 27.8165 20.446 27.7098 20.6634 27.6073C20.8622 27.5131 21.0621 27.4241 21.2577 27.3206C21.4886 27.1973 21.7112 27.0617 21.9349 26.9271C22.1036 26.8236 22.2734 26.7293 22.438 26.6165C22.6803 26.4571 22.9123 26.2842 23.1441 26.1112C23.2788 26.0076 23.4154 25.9144 23.5469 25.8089C23.7923 25.6121 24.0253 25.403 24.2582 25.1876C24.3431 25.11 24.4342 25.0417 24.5181 24.9608C24.5264 24.9536 24.5295 24.9412 24.5378 24.9329C30.3116 19.4012 30.508 10.2362 24.9766 4.46223ZM22.6495 23.8488C22.461 24.0145 22.2663 24.1718 22.0697 24.3241C21.9537 24.4131 21.8377 24.5011 21.7187 24.586C21.5313 24.7217 21.3408 24.8501 21.1471 24.9733C21.0063 25.0634 20.8624 25.1503 20.7174 25.2352C20.5352 25.3388 20.3498 25.4423 20.1624 25.5459C19.9968 25.6307 19.828 25.7105 19.6582 25.7892C19.4885 25.8679 19.301 25.9517 19.1178 26.0253C18.9345 26.0988 18.7399 26.1682 18.5483 26.2323C18.3733 26.2924 18.1984 26.3545 18.0213 26.4073C17.8142 26.4694 17.5978 26.5202 17.3835 26.572C17.2157 26.6113 17.0501 26.6558 16.8803 26.689C16.6349 26.7366 16.3844 26.7697 16.1328 26.8039C15.9899 26.8225 15.8481 26.8484 15.7041 26.8629C15.3065 26.9012 14.9038 26.924 14.4969 26.924C14.09 26.924 13.6872 26.9013 13.2896 26.8629C13.1457 26.8484 13.0039 26.8225 12.8609 26.8039C12.6093 26.7697 12.3588 26.7366 12.1134 26.689C11.9436 26.6559 11.7779 26.6113 11.6102 26.572C11.3959 26.5202 11.1826 26.4684 10.9724 26.4073C10.7954 26.3545 10.6204 26.2924 10.4454 26.2323C10.2539 26.1661 10.0623 26.0987 9.87596 26.0253C9.68959 25.9517 9.5136 25.871 9.33548 25.7892C9.15737 25.7074 8.9969 25.6308 8.83128 25.5459C8.64389 25.4486 8.45855 25.346 8.27631 25.2352C8.13138 25.1504 7.98741 25.0634 7.84661 24.9733C7.65302 24.8501 7.46247 24.7217 7.27507 24.586C7.15598 24.5012 7.04005 24.4131 6.92405 24.3241C6.72731 24.1718 6.53269 24.0134 6.34426 23.8488C6.2987 23.8146 6.25727 23.7711 6.2128 23.7317C6.25909 20.2095 8.52176 17.0993 11.8587 15.9713C13.5272 16.765 15.4644 16.765 17.1329 15.9713C20.4698 17.0993 22.7325 20.2094 22.7789 23.7317C22.7354 23.7711 22.6939 23.8105 22.6495 23.8488ZM10.8854 8.30185C12.0064 6.30803 14.5314 5.60056 16.5252 6.72167C18.5189 7.84277 19.2264 10.3679 18.1053 12.3617C17.7334 13.0232 17.1868 13.5699 16.5252 13.9419C16.52 13.9419 16.5138 13.9419 16.5076 13.9481C16.233 14.1009 15.9428 14.2238 15.642 14.3146C15.5882 14.3302 15.5384 14.3509 15.4815 14.3643C15.378 14.3913 15.2693 14.4099 15.1626 14.4285C14.9618 14.4636 14.7586 14.484 14.5549 14.4896H14.4368C14.233 14.484 14.0299 14.4636 13.829 14.4285C13.7255 14.4099 13.6157 14.3913 13.5102 14.3643C13.4553 14.3509 13.4066 14.3302 13.3497 14.3146C13.0489 14.2238 12.7587 14.101 12.4841 13.9481L12.4655 13.9419C10.4718 12.8208 9.76433 10.2957 10.8854 8.30185ZM24.6156 21.6786C23.9512 18.5794 21.9105 15.952 19.0722 14.5415C21.3924 12.0139 21.2243 8.08399 18.6969 5.7637C16.1695 3.44342 12.2397 3.61147 9.91952 6.139C7.73832 8.51516 7.73832 12.1654 9.91952 14.5415C7.08124 15.9521 5.04054 18.5794 4.37612 21.6786C0.40587 16.0859 1.72088 8.33352 7.31329 4.3631C12.9057 0.392674 20.6578 1.70774 24.628 7.30039C26.1205 9.40275 26.9216 11.9175 26.9204 14.4959C26.9204 17.0719 26.1145 19.5834 24.6156 21.6786Z" fill="#6B6B6B"/>
</svg>
